<svg width="346" height="216" viewBox="0 0 346 216" fill="none" xmlns="http://www.w3.org/2000/svg">
<path fill-rule="evenodd" clip-rule="evenodd" d="M122.258 212.465C122.14 212.465 122.03 212.39 121.992 212.272L97.7897 137.9C97.7419 137.753 97.8221 137.596 97.9688 137.548C98.1155 137.5 98.273 137.58 98.3209 137.727L122.523 212.099C122.571 212.245 122.491 212.403 122.344 212.451C122.315 212.46 122.286 212.465 122.258 212.465Z" fill="#21211D"/>
<path fill-rule="evenodd" clip-rule="evenodd" d="M30.6233 212.465C30.5961 212.465 30.5685 212.461 30.5411 212.452C30.3936 212.407 30.3109 212.251 30.3561 212.103L53.1841 137.732C53.2292 137.584 53.3855 137.501 53.533 137.546C53.6805 137.592 53.7634 137.748 53.7181 137.896L30.8903 212.267C30.8533 212.388 30.7428 212.465 30.6233 212.465Z" fill="#21211D"/>
<path fill-rule="evenodd" clip-rule="evenodd" d="M97.0398 136.535H37.8459L17.5858 74.4627C16.6037 71.4536 18.846 68.3629 22.0114 68.3629H71.4113C73.4258 68.3629 75.2118 69.6588 75.8367 71.5739L97.0398 136.535Z" fill="#5A3EE8"/>
<path fill-rule="evenodd" clip-rule="evenodd" d="M104.453 136.535H45.2589L24.9989 74.4627C24.0166 71.4536 26.259 68.3629 29.4244 68.3629H78.8243C80.8387 68.3629 82.6247 69.6588 83.2499 71.5739L104.453 136.535Z" fill="#B3A6F4"/>
<path fill-rule="evenodd" clip-rule="evenodd" d="M42.416 140.883H132.732C135.487 140.883 137.72 138.65 137.72 135.895C137.72 133.141 135.487 130.908 132.732 130.908H36.0098L39.1849 140.883H42.416Z" fill="#5A3EE8"/>
<path fill-rule="evenodd" clip-rule="evenodd" d="M113.146 185.893H38.7788C38.6245 185.893 38.4995 185.768 38.4995 185.614C38.4995 185.459 38.6245 185.334 38.7788 185.334H113.146C113.301 185.334 113.426 185.459 113.426 185.614C113.426 185.768 113.301 185.893 113.146 185.893Z" fill="#21211D"/>
<path fill-rule="evenodd" clip-rule="evenodd" d="M137.719 136.175H37.8457C37.6914 136.175 37.5664 136.05 37.5664 135.895C37.5664 135.741 37.6914 135.616 37.8457 135.616H137.719C137.873 135.616 137.998 135.741 137.998 135.895C137.998 136.05 137.873 136.175 137.719 136.175Z" fill="#21211D"/>
<path fill-rule="evenodd" clip-rule="evenodd" d="M51.5326 116.651C51.4141 116.651 51.304 116.575 51.2662 116.456L39.9983 80.7569C39.952 80.6098 40.0336 80.4529 40.1806 80.4063C40.3277 80.3596 40.4848 80.4414 40.5312 80.5886L51.7992 116.288C51.8456 116.435 51.764 116.592 51.6167 116.638C51.5888 116.647 51.5606 116.651 51.5326 116.651Z" fill="white"/>
<path fill-rule="evenodd" clip-rule="evenodd" d="M68.5922 116.651C68.4737 116.651 68.3635 116.575 68.3258 116.456L57.0579 80.7569C57.0116 80.6098 57.0931 80.4529 57.2402 80.4063C57.3873 80.3596 57.5444 80.4414 57.5907 80.5886L68.8588 116.288C68.9052 116.435 68.8236 116.592 68.6763 116.638C68.6483 116.647 68.6202 116.651 68.5922 116.651Z" fill="white"/>
<path fill-rule="evenodd" clip-rule="evenodd" d="M85.6523 116.651C85.5337 116.651 85.4236 116.575 85.3858 116.456L74.118 80.7569C74.0716 80.6098 74.1532 80.4529 74.3003 80.4063C74.4472 80.3596 74.6044 80.4414 74.6508 80.5886L85.9189 116.288C85.9652 116.435 85.8836 116.592 85.7364 116.638C85.7084 116.647 85.6802 116.651 85.6523 116.651Z" fill="white"/>
<path fill-rule="evenodd" clip-rule="evenodd" d="M257.942 162.128L171.888 102.584L153.877 124.416L228.691 197.585L257.942 162.128Z" fill="#5A3EE8"/>
<path opacity="0.2" fill-rule="evenodd" clip-rule="evenodd" d="M257.942 162.128L171.888 102.584L153.877 124.416L228.691 197.585L257.942 162.128Z" fill="#343434"/>
<path fill-rule="evenodd" clip-rule="evenodd" d="M228.353 197.3C230.015 198.691 233.918 197.784 238.351 195.051C242.044 192.772 246.103 189.227 249.545 184.687C251.724 181.813 253.637 178.944 255.176 176.262C258.99 169.628 260.534 164.122 258.28 162.412C255.816 160.546 249.187 164.113 242.801 170.494C240.98 172.315 239.175 174.365 237.493 176.584C234.585 180.422 232.228 184.09 230.557 187.257C227.875 192.336 226.959 196.135 228.353 197.3Z" fill="#21211D"/>
<mask id="mask0_75_1771" style="mask-type:alpha" maskUnits="userSpaceOnUse" x="230" y="170" width="59" height="42">
<path fill-rule="evenodd" clip-rule="evenodd" d="M230.557 170.494H288.763V211.142H230.557V170.494Z" fill="white"/>
</mask>
<g mask="url(#mask0_75_1771)">
<path fill-rule="evenodd" clip-rule="evenodd" d="M230.557 187.257L238.351 195.051L254.442 211.142L288.763 176.818C288.763 176.818 283.408 172.955 267.394 176.648C263.434 177.564 259.473 177.301 255.771 176.416C255.576 176.368 255.377 176.318 255.176 176.262C251.193 175.164 246.075 172.416 242.801 170.494C240.98 172.315 239.175 174.365 237.493 176.583C234.585 180.422 232.228 184.09 230.557 187.257Z" fill="#BCBCBC"/>
</g>
<path fill-rule="evenodd" clip-rule="evenodd" d="M237.158 176.611C237.094 176.611 237.031 176.59 236.978 176.546L186.995 134.559C186.877 134.46 186.861 134.284 186.961 134.166C187.06 134.048 187.236 134.032 187.354 134.132L237.337 176.118C237.456 176.217 237.471 176.393 237.372 176.512C237.317 176.578 237.237 176.611 237.158 176.611Z" fill="#21211D"/>
<path fill-rule="evenodd" clip-rule="evenodd" d="M221.21 189.622C221.19 189.622 221.17 189.62 221.15 189.616C220.999 189.583 220.904 189.434 220.937 189.283C223.591 177.166 231.266 168.783 237.238 163.884C243.703 158.58 249.626 156.102 249.685 156.077C249.828 156.018 249.991 156.086 250.05 156.229C250.109 156.371 250.042 156.535 249.899 156.594C249.84 156.618 243.981 159.071 237.578 164.327C231.68 169.168 224.101 177.449 221.483 189.403C221.454 189.533 221.339 189.622 221.21 189.622Z" fill="#21211D"/>
<path fill-rule="evenodd" clip-rule="evenodd" d="M252.095 208.922C252.025 208.922 251.954 208.895 251.9 208.842C251.79 208.734 251.788 208.557 251.896 208.447L284.245 175.407C284.355 175.297 284.531 175.295 284.641 175.403C284.752 175.511 284.754 175.688 284.646 175.798L252.295 208.838C252.24 208.894 252.168 208.922 252.095 208.922Z" fill="#21211D"/>
<path fill-rule="evenodd" clip-rule="evenodd" d="M246.809 203.746C246.735 203.746 246.661 203.717 246.606 203.659C246.5 203.548 246.504 203.371 246.616 203.265C246.68 203.204 253.018 197.284 258.225 202.382C258.335 202.49 258.337 202.667 258.229 202.778C258.121 202.888 257.944 202.889 257.834 202.782C255.818 200.808 253.395 200.349 250.632 201.416C248.534 202.226 247.016 203.655 247.001 203.669C246.947 203.721 246.878 203.746 246.809 203.746Z" fill="#21211D"/>
<path fill-rule="evenodd" clip-rule="evenodd" d="M243.047 184.683C244.371 185.98 244.393 188.104 243.097 189.429C241.8 190.753 239.675 190.776 238.351 189.479C237.027 188.182 237.004 186.057 238.301 184.733C239.598 183.409 241.722 183.386 243.047 184.683Z" fill="white"/>
<path fill-rule="evenodd" clip-rule="evenodd" d="M252.857 180.83C252.817 180.83 252.777 180.821 252.738 180.803C252.598 180.737 252.539 180.57 252.605 180.431L254.685 176.044C254.751 175.904 254.918 175.845 255.057 175.911C255.197 175.977 255.256 176.144 255.19 176.283L253.11 180.67C253.062 180.771 252.962 180.83 252.857 180.83Z" fill="#21211D"/>
<path fill-rule="evenodd" clip-rule="evenodd" d="M256.35 182.184C256.311 182.184 256.272 182.176 256.235 182.159C256.094 182.095 256.032 181.93 256.096 181.789L258.268 176.996C258.332 176.856 258.498 176.793 258.638 176.857C258.779 176.921 258.841 177.086 258.777 177.227L256.605 182.02C256.558 182.123 256.456 182.184 256.35 182.184Z" fill="#21211D"/>
<path fill-rule="evenodd" clip-rule="evenodd" d="M260.721 182.389C260.685 182.389 260.649 182.382 260.614 182.367C260.471 182.308 260.404 182.144 260.464 182.002L262.505 177.108C262.564 176.965 262.728 176.898 262.87 176.957C263.013 177.017 263.08 177.18 263.021 177.323L260.979 182.217C260.934 182.324 260.83 182.389 260.721 182.389Z" fill="#21211D"/>
<path fill-rule="evenodd" clip-rule="evenodd" d="M263.854 157.154C263.649 157.154 263.441 157.198 263.229 157.284C261.505 157.986 259.563 161.45 257.611 167.302C256.55 170.483 255.754 173.583 255.38 175.122C256.417 174.013 258.438 171.789 260.406 169.274C264.075 164.583 265.894 161.023 265.669 158.978C265.595 158.298 265.299 157.798 264.765 157.449C264.464 157.253 264.161 157.154 263.854 157.154ZM254.871 176.343C254.825 176.343 254.78 176.332 254.738 176.31C254.628 176.25 254.571 176.125 254.598 176.003C254.608 175.96 255.58 171.626 257.079 167.129C259.113 161.029 261.111 157.543 263.018 156.767C263.723 156.48 264.413 156.552 265.071 156.981C265.743 157.421 266.133 158.072 266.225 158.917C266.804 164.171 255.55 175.768 255.071 176.259C255.017 176.314 254.944 176.343 254.871 176.343Z" fill="#21211D"/>
<path fill-rule="evenodd" clip-rule="evenodd" d="M267.856 165.484C266.123 165.484 263.418 167.271 260.016 170.669C258.127 172.556 256.49 174.478 255.682 175.456C258.589 174.666 268.269 171.802 269.697 168.355C269.967 167.704 269.914 167.084 269.534 166.458C269.165 165.846 268.664 165.529 268.003 165.488C267.956 165.485 267.905 165.484 267.856 165.484ZM254.927 176.223C254.833 176.223 254.744 176.176 254.692 176.095C254.627 175.995 254.634 175.865 254.707 175.771C255.065 175.317 263.522 164.655 268.038 164.931C268.883 164.982 269.546 165.399 270.014 166.169C270.483 166.946 270.552 167.754 270.213 168.569C268.431 172.871 255.541 176.08 254.993 176.215C254.971 176.221 254.949 176.223 254.927 176.223Z" fill="#21211D"/>
<path fill-rule="evenodd" clip-rule="evenodd" d="M67.8501 109.93C67.8501 121.802 77.5639 131.395 89.4339 131.207C96.245 131.099 103.056 131.066 109.867 131.067C122.542 131.088 135.216 131.28 147.89 131.602C149.222 131.636 147.878 131.605 147.878 131.605C147.878 131.605 149.644 139.824 150.058 141.766C150.76 145.202 150.646 145.28 151.321 148.722C152.7 155.6 154.011 162.496 155.239 169.413L156.146 174.605L157.013 179.806C157.585 183.276 158.111 186.757 158.596 190.25L203.066 178.621C201.778 175.338 200.533 172.045 199.333 168.739L197.543 163.779L195.792 158.808C193.476 152.175 192.082 148.873 189.917 142.2C188.82 138.868 187.773 135.523 186.703 132.183C185.663 128.836 184.602 125.495 183.584 122.142L182.818 119.628L182.434 118.371L182.235 117.714L181.984 116.926C181.81 116.403 181.642 115.88 181.427 115.369C181.221 114.856 181.006 114.347 180.783 113.842C180.564 113.335 180.3 112.847 180.049 112.356C179.55 111.368 178.966 110.429 178.363 109.505C177.123 107.682 175.715 105.971 174.114 104.471C170.949 101.429 167.1 99.1516 162.959 97.7462C162.439 97.5774 161.913 97.4245 161.388 97.2751L160.597 97.0595C160.332 96.9938 160.064 96.9386 159.797 96.8811C159.262 96.7681 158.726 96.664 158.188 96.5687C157.65 96.486 157.108 96.422 156.567 96.3616C155.483 96.2257 154.4 96.2108 153.316 96.1916L153.115 96.1901L153.033 96.1922L152.869 96.1969L152.541 96.2059L151.885 96.2239C137.879 96.6104 123.873 96.6435 109.867 96.6671C96.6266 96.4688 82.4344 96.6671 67.8501 96.6671V109.93Z" fill="#5A3EE8"/>
<path fill-rule="evenodd" clip-rule="evenodd" d="M158.596 190.249C159.169 192.481 163.133 193.453 168.731 193.266C172.785 193.132 177.696 192.392 182.794 191.084C186.992 190.009 190.828 188.646 194.01 187.165C200.033 184.366 203.712 181.14 203.066 178.62C202.376 175.924 196.912 174.756 189.526 175.368C186.369 175.628 182.861 176.217 179.224 177.148C175.374 178.134 171.796 179.424 168.731 180.849C162.128 183.922 157.923 187.621 158.596 190.249Z" fill="#21211D"/>
<path fill-rule="evenodd" clip-rule="evenodd" d="M168.731 180.849V211.142H217.271C217.271 211.142 216.215 204.622 202.281 195.912C198.834 193.758 196.216 190.772 194.227 187.529C194.155 187.409 194.082 187.288 194.009 187.165C191.814 183.444 190.414 178.888 189.526 175.368C186.369 175.628 182.861 176.218 179.223 177.148C175.374 178.134 171.795 179.425 168.731 180.849Z" fill="#BCBCBC"/>
<path fill-rule="evenodd" clip-rule="evenodd" d="M179.223 177.26C179.104 177.26 178.994 177.183 178.957 177.064L162.661 125.091C160.565 118.325 154.399 113.779 147.317 113.779H93.1091C88.3687 113.779 84.5122 109.923 84.5122 105.182V97.1587C84.5122 97.0044 84.6374 96.8794 84.7915 96.8794C84.9459 96.8794 85.0708 97.0044 85.0708 97.1587V105.182C85.0708 109.615 88.677 113.221 93.1091 113.221H147.317C154.645 113.221 161.026 117.924 163.194 124.924L179.49 176.897C179.536 177.044 179.454 177.201 179.307 177.247C179.279 177.256 179.251 177.26 179.223 177.26Z" fill="#21211D"/>
<path fill-rule="evenodd" clip-rule="evenodd" d="M156.793 178.936C156.712 178.936 156.631 178.9 156.576 178.833C156.479 178.713 156.497 178.537 156.617 178.44C165.712 171.041 176.79 168.781 184.482 168.188C192.81 167.546 199.079 168.666 199.142 168.678C199.293 168.705 199.394 168.851 199.366 169.003C199.338 169.154 199.193 169.255 199.041 169.227C198.979 169.216 192.768 168.108 184.51 168.746C176.901 169.335 165.948 171.569 156.969 178.873C156.917 178.915 156.855 178.936 156.793 178.936Z" fill="#21211D"/>
<path fill-rule="evenodd" clip-rule="evenodd" d="M215.752 208.365H168.877C168.723 208.365 168.598 208.24 168.598 208.086C168.598 207.932 168.723 207.807 168.877 207.807H215.752C215.907 207.807 216.032 207.932 216.032 208.086C216.032 208.24 215.907 208.365 215.752 208.365Z" fill="#21211D"/>
<path fill-rule="evenodd" clip-rule="evenodd" d="M177.361 208.365C177.206 208.365 177.081 208.24 177.081 208.086C177.081 205.265 175.714 203.213 173.018 201.985C170.972 201.052 168.889 200.968 168.868 200.967C168.714 200.961 168.594 200.832 168.599 200.678C168.605 200.524 168.737 200.404 168.888 200.409C168.976 200.412 177.64 200.798 177.64 208.086C177.64 208.24 177.515 208.365 177.361 208.365Z" fill="#21211D"/>
<path fill-rule="evenodd" clip-rule="evenodd" d="M179.668 184.859C179.668 186.712 178.165 188.214 176.311 188.214C174.458 188.214 172.956 186.712 172.956 184.859C172.956 183.005 174.458 181.502 176.311 181.502C178.165 181.502 179.668 183.005 179.668 184.859Z" fill="white"/>
<path fill-rule="evenodd" clip-rule="evenodd" d="M189.366 189.255C189.25 189.255 189.142 189.183 189.102 189.067C189.051 188.921 189.129 188.762 189.275 188.712L193.864 187.129C194.01 187.078 194.169 187.156 194.219 187.302C194.27 187.448 194.192 187.607 194.046 187.657L189.457 189.24C189.427 189.25 189.396 189.255 189.366 189.255Z" fill="#21211D"/>
<path fill-rule="evenodd" clip-rule="evenodd" d="M190.96 192.699C190.846 192.699 190.738 192.629 190.697 192.516C190.644 192.371 190.719 192.21 190.864 192.157L196.053 190.268C196.198 190.215 196.359 190.289 196.411 190.435C196.464 190.58 196.389 190.74 196.245 190.793L191.055 192.683C191.024 192.694 190.991 192.699 190.96 192.699Z" fill="#21211D"/>
<path fill-rule="evenodd" clip-rule="evenodd" d="M193.871 195.966C193.76 195.966 193.655 195.9 193.612 195.79C193.555 195.647 193.624 195.484 193.768 195.427L198.936 193.365C199.079 193.308 199.241 193.378 199.299 193.521C199.356 193.664 199.286 193.827 199.143 193.884L193.975 195.946C193.941 195.96 193.906 195.966 193.871 195.966Z" fill="#21211D"/>
<path fill-rule="evenodd" clip-rule="evenodd" d="M212.012 179.878C209.971 179.878 206.657 180.973 202.272 183.107C199.257 184.574 196.488 186.173 195.128 186.982C196.646 186.947 199.649 186.836 202.823 186.482C208.741 185.821 212.558 184.631 213.861 183.04C214.295 182.51 214.446 181.949 214.321 181.324C214.204 180.736 213.891 180.339 213.364 180.111C213.006 179.955 212.554 179.878 212.012 179.878ZM194.098 187.556C193.974 187.556 193.864 187.474 193.83 187.354C193.795 187.234 193.845 187.106 193.951 187.04C193.989 187.016 197.765 184.679 202.028 182.604C207.809 179.79 211.698 178.779 213.587 179.598C214.284 179.901 214.715 180.445 214.869 181.215C215.026 182.003 214.832 182.736 214.294 183.394C210.944 187.483 194.785 187.555 194.099 187.556H194.098Z" fill="#21211D"/>
<path fill-rule="evenodd" clip-rule="evenodd" d="M209.98 192.478C210.633 192.215 211.039 191.744 211.221 191.035C211.399 190.342 211.276 189.762 210.843 189.262C209.712 187.955 206.499 187.235 201.553 187.179C198.883 187.149 196.364 187.325 195.101 187.432C197.698 188.956 206.518 193.869 209.98 192.478ZM194.076 187.471C193.975 187.408 193.925 187.287 193.951 187.171C193.978 187.055 194.075 186.968 194.194 186.955C194.768 186.893 208.304 185.475 211.265 188.896C211.819 189.536 211.986 190.302 211.763 191.174C211.536 192.054 211.007 192.668 210.188 192.997C209.711 193.188 209.147 193.274 208.522 193.274C203.498 193.274 194.503 187.735 194.076 187.471Z" fill="#21211D"/>
<path fill-rule="evenodd" clip-rule="evenodd" d="M102.165 65.0097C107.235 63.8539 112.27 62.5528 117.294 61.2073L124.825 59.1592L125.295 59.0307L125.413 58.9986C125.323 59.0217 125.208 59.0483 125.106 59.0682C124.902 59.1114 124.669 59.1355 124.484 59.1586C123.727 59.2333 122.944 59.1975 122.198 59.0301C120.701 58.695 119.349 57.912 118.329 56.7639C117.815 56.1951 117.386 55.5357 117.073 54.8286C116.991 54.6547 116.919 54.4755 116.857 54.2936C116.797 54.1199 116.751 53.9944 116.708 53.8385L116.679 53.7262L116.665 53.6699C116.663 53.6636 116.659 53.6444 116.66 53.6484L116.664 53.6634L116.701 53.7833L116.774 54.0229L117.356 55.9398L119.687 63.6057L122.053 71.2609L124.933 83.6525L127.344 91.2912C128.938 96.3394 134.236 99.1122 139.179 97.4846C143.889 95.9333 146.576 90.9458 145.439 86.1111L145.43 86.0746L143.087 73.5893L141.213 65.8569L139.325 58.1297L137.403 50.4135L136.922 48.4849L136.862 48.2438L136.832 48.1235L136.717 47.7094C136.623 47.3954 136.538 47.1077 136.417 46.7793C136.292 46.4439 136.156 46.1113 136.012 45.7839C135.417 44.4765 134.621 43.2593 133.667 42.1988C131.754 40.0845 129.222 38.5968 126.442 38.0073C125.058 37.7115 123.616 37.6276 122.211 37.782C121.864 37.8142 121.471 37.8809 121.106 37.9484C120.923 37.9828 120.728 38.0233 120.558 38.0615L120.439 38.0894L119.96 38.2007L112.298 39.9903C107.195 41.2032 102.102 42.4605 97.0447 43.8629C91.3594 45.4397 88.0021 51.425 89.5458 57.2319C91.0445 62.8697 96.6124 66.2661 102.138 65.016L102.165 65.0097Z" fill="#EFECFD"/>
<path fill-rule="evenodd" clip-rule="evenodd" d="M63.938 98.3417L77.557 53.9863C78.5653 45.5127 85.7234 40.3472 94.1044 40.6529L109.269 41.8143C116.479 42.0774 122.747 45.732 124.471 52.8626L128.486 98.3417H63.938Z" fill="#EFECFD"/>
<mask id="mask1_75_1771" style="mask-type:alpha" maskUnits="userSpaceOnUse" x="43" y="36" width="68" height="64">
<path fill-rule="evenodd" clip-rule="evenodd" d="M43.5469 36.3307H110.2V99.6299H43.5469V36.3307Z" fill="white"/>
</mask>
<g mask="url(#mask1_75_1771)">
<path fill-rule="evenodd" clip-rule="evenodd" d="M102.055 42.1286C99.7165 41.5453 97.3705 40.9957 95.027 40.4345L87.9852 38.8024L80.9343 37.2114L79.17 36.821L78.7289 36.7234L78.5085 36.6747L78.0731 36.5855L77.589 36.4998C76.2935 36.2968 74.9497 36.2698 73.6373 36.4542C71.0063 36.8061 68.5204 37.9392 66.5134 39.6697C65.5113 40.5387 64.6272 41.5543 63.8968 42.679C63.1719 43.8086 62.6113 45.0381 62.2266 46.305L62.8361 44.7353L58.1744 55.0706C56.6223 58.5164 55.0597 61.9572 53.5279 65.4133L48.9143 75.7726C47.3941 79.2345 45.8577 82.688 44.353 86.1575C42.2503 91.0056 44.403 96.6719 49.1616 98.8145C53.686 100.851 58.9538 98.936 61.2668 94.5782C63.0288 91.2366 64.759 87.8796 66.5055 84.5301L71.6924 74.4566C73.4276 71.1017 75.1318 67.7315 76.8467 64.3664L81.9852 54.2686L82.5947 52.6989C82.3978 53.3829 82.0918 54.0536 81.6932 54.6667C81.302 55.2844 80.8204 55.8391 80.2745 56.3081C79.1919 57.2538 77.8456 57.8631 76.4105 58.0621C75.694 58.1548 74.9585 58.1556 74.2567 58.0417C74.1691 58.0288 74.0817 58.0135 73.9948 57.9959L73.7814 57.9484L74.0011 58.0008L74.4406 58.1063L76.1979 58.528L83.2339 60.1861L90.279 61.8029C92.6315 62.3245 94.9808 62.858 97.338 63.3577C103.115 64.5825 108.772 60.8042 109.974 54.9188C111.15 49.1645 107.611 43.5218 102.055 42.1286Z" fill="#EFECFD"/>
</g>
<path fill-rule="evenodd" clip-rule="evenodd" d="M62.8161 44.8295C61.1332 48.2042 59.4968 51.6019 57.8747 55.0067L55.459 60.1228L53.071 65.2522C51.4823 68.6738 49.889 72.0931 48.3254 75.5268C46.7461 78.9527 45.2005 82.3958 43.6502 85.8362L43.3294 86.5486C41.0395 91.6303 43.2349 97.6373 48.233 99.9655C50.527 101.034 53.0293 101.137 55.2691 100.449L105.949 84.8164C109.912 83.5937 112.151 79.3353 110.948 75.3052C109.824 71.5379 106.057 69.3112 102.337 70.0338L50.3533 80.3266L61.9723 94.9396C63.6891 91.5818 65.4113 88.2266 67.0991 84.8545C68.8026 81.4902 70.4768 78.111 72.1554 74.7344L74.6682 69.6666L77.1537 64.5854C78.7987 61.1919 80.4298 57.7916 82.014 54.3681C84.5264 48.9388 82.2344 42.4672 76.8947 39.9129C71.656 37.4067 65.4221 39.6185 62.8161 44.8295Z" fill="#EFECFD"/>
<path fill-rule="evenodd" clip-rule="evenodd" d="M70.3161 81.1289C70.2746 81.1289 70.2328 81.1193 70.1932 81.0986C70.1737 81.0882 68.1827 80.0563 64.5352 78.968C61.1693 77.9634 55.664 76.7041 48.5512 76.4089C48.4012 76.4027 48.2842 76.272 48.2903 76.1171C48.2963 75.9622 48.4233 75.8409 48.5729 75.8479C55.7498 76.146 61.307 77.419 64.7049 78.4342C68.3957 79.5372 70.3577 80.5552 70.4395 80.5981C70.5733 80.6681 70.6267 80.8371 70.5588 80.9752C70.5109 81.0728 70.4153 81.1289 70.3161 81.1289Z" fill="#21211D"/>
<path fill-rule="evenodd" clip-rule="evenodd" d="M99.5436 55.8967C97.3005 55.8967 95.1616 55.1734 93.3582 53.805C90.78 51.8482 89.2146 48.6443 89.1712 45.2338C89.1616 44.4923 89.2396 43.7133 89.4098 42.8522L89.9939 39.4995C90.0201 39.3491 90.1601 39.2481 90.309 39.2751C90.4567 39.3019 90.5552 39.4457 90.529 39.5961L89.9436 42.9549C89.7801 43.7835 89.7056 44.5244 89.7146 45.2268C89.7562 48.4659 91.2395 51.5069 93.6829 53.3612C95.3918 54.6578 97.4184 55.3432 99.5436 55.3432C101.532 55.3432 103.451 54.7366 105.092 53.5889C107.731 51.743 109.326 48.6107 109.36 45.2096C109.367 44.473 109.282 43.6976 109.099 42.8387L108.682 40.9989C108.648 40.8499 108.74 40.7014 108.886 40.667C109.032 40.6326 109.178 40.7255 109.211 40.8745L109.629 42.7179C109.822 43.6213 109.911 44.437 109.904 45.2153C109.868 48.7963 108.184 52.0972 105.399 54.0448C103.667 55.2563 101.642 55.8967 99.5436 55.8967Z" fill="#21211D"/>
<path fill-rule="evenodd" clip-rule="evenodd" d="M69.4877 76.4346C69.4704 76.4346 69.453 76.4329 69.4354 76.4293C69.2903 76.3996 69.1956 76.2537 69.2244 76.1035L72.9916 56.3163C73.0202 56.1659 73.161 56.0679 73.3063 56.0976C73.4515 56.1273 73.5461 56.2732 73.5174 56.4237L69.7502 76.2107C69.7249 76.3431 69.6128 76.4346 69.4877 76.4346Z" fill="#21211D"/>
<path fill-rule="evenodd" clip-rule="evenodd" d="M129.864 98.3417L123.206 57.1939C123.185 57.0601 123.376 57.019 123.408 57.1509L132.984 96.335L129.864 98.3417Z" fill="#21211D"/>
<path fill-rule="evenodd" clip-rule="evenodd" d="M56.155 100.826C58.2389 100.199 60.3197 99.5588 62.3991 98.9134L68.6387 96.9824C72.7959 95.6864 76.9565 94.4025 81.1058 93.072C85.2564 91.7476 89.3941 90.3714 93.5378 89.0198L99.7442 86.9531L105.942 84.8514C109.877 83.517 112.003 79.1939 110.689 75.1958C109.5 71.5782 105.902 69.4677 102.312 70.087L95.8698 71.1923L89.4359 72.3322C85.1529 73.1187 80.8642 73.8802 76.588 74.6937C72.3103 75.5013 68.0441 76.3551 63.7749 77.197L57.3743 78.4727C55.2403 78.8961 53.1077 79.3253 50.9782 79.767C45.192 80.9673 41.4592 86.7054 42.6406 92.5836C43.8219 98.4619 49.4706 102.254 55.2566 101.054C55.5552 100.992 55.8678 100.911 56.155 100.826Z" fill="#F0B5AA"/>
<path fill-rule="evenodd" clip-rule="evenodd" d="M95.8573 79.6657C98.3654 78.916 100.865 78.1318 103.361 77.3308L107.101 76.1087L108.035 75.7973C108.338 75.697 108.689 75.5777 108.902 75.5127C109.399 75.3553 109.867 75.2424 110.207 75.1871C110.557 75.1317 110.789 75.121 111.037 75.156C111.282 75.1914 111.576 75.3007 111.922 75.5223C112.266 75.7439 112.65 76.0399 113.032 76.4127L113.154 76.5242L113.252 76.6206C113.317 76.6867 113.38 76.7569 113.442 76.8297L113.488 76.8843L113.511 76.9126L113.548 76.9631L113.693 77.1661L113.984 77.5716C115.537 79.7344 117.116 81.8805 118.791 83.9669C119.43 84.7628 120.581 84.88 121.362 84.2288C122.006 83.6917 122.196 82.7976 121.885 82.0551C120.843 79.5767 119.705 77.1579 118.541 74.7558L118.322 74.3055L118.213 74.0802L118.185 74.0238L118.144 73.9456L118.06 73.7885C117.943 73.5812 117.818 73.3782 117.685 73.1787C117.618 73.0793 117.549 72.9807 117.478 72.8829L117.369 72.7374L117.276 72.6181C116.797 71.9849 116.24 71.3451 115.557 70.7397C114.874 70.1391 114.021 69.5616 113.021 69.1738C112.026 68.7798 110.937 68.6149 109.98 68.6108C109.01 68.6046 108.182 68.7253 107.402 68.861C106.975 68.9369 106.695 68.9985 106.364 69.0646L105.397 69.2606L101.534 70.0673C98.962 70.6191 96.3934 71.1873 93.8332 71.7903C91.6826 72.2963 90.342 74.4831 90.8388 76.6744C91.3354 78.8659 93.4815 80.232 95.632 79.7257C95.7037 79.7089 95.7873 79.6862 95.8573 79.6657Z" fill="#F0B5AA"/>
<path fill-rule="evenodd" clip-rule="evenodd" d="M93.2485 84.9312L110.222 78.1887L107.651 77.814C107.628 77.7901 107.684 77.8232 107.708 77.8345L107.814 77.894C107.887 77.9358 107.964 77.9836 108.041 78.0325C108.195 78.1297 108.351 78.238 108.506 78.3483C108.815 78.5717 109.117 78.8139 109.405 79.0695C109.982 79.5816 110.508 80.1467 110.944 80.7554C111.165 81.0592 111.364 81.3739 111.536 81.6994C111.711 82.024 111.863 82.3587 111.982 82.7038C112.234 83.3923 112.354 84.122 112.373 84.8837L112.376 85.0042C112.401 86.0217 113.231 86.826 114.23 86.8008C115.095 86.7789 115.802 86.1412 115.961 85.3105C116.178 84.175 116.231 82.9704 116.067 81.7952C115.993 81.2057 115.867 80.6251 115.702 80.06C115.541 79.4928 115.337 78.9426 115.101 78.4127C114.633 77.3477 114.04 76.3644 113.368 75.4537C113.031 74.9979 112.673 74.5608 112.291 74.1383C112.099 73.9272 111.904 73.7195 111.695 73.5141C111.591 73.411 111.486 73.3093 111.373 73.2055L111.199 73.048C111.13 72.9883 111.091 72.951 110.972 72.8593L110.971 72.8589C110.272 72.3491 109.421 72.2148 108.648 72.4174L108.4 72.4839L90.7806 77.2053C88.647 77.777 87.3725 80.0023 87.9337 82.1756C88.495 84.3489 90.6797 85.6473 92.8133 85.0756C92.9615 85.0357 93.109 84.9864 93.2485 84.9312Z" fill="#F0B5AA"/>
<path fill-rule="evenodd" clip-rule="evenodd" d="M90.1219 86.7324L107.104 79.9666L104.821 79.7683L104.821 79.7681C104.787 79.7481 104.791 79.7481 104.792 79.7471C104.791 79.745 104.791 79.743 104.797 79.745C104.807 79.7475 104.812 79.7464 104.826 79.7522C104.85 79.7597 104.876 79.7691 104.906 79.7822C104.964 79.8058 105.028 79.8352 105.093 79.8674C105.222 79.933 105.357 80.0057 105.489 80.0887C105.756 80.251 106.015 80.4411 106.259 80.6483C106.749 81.0627 107.176 81.5515 107.518 82.1063C107.864 82.6596 108.12 83.2851 108.283 83.9705C108.442 84.6565 108.509 85.4009 108.479 86.1767L108.477 86.2447C108.437 87.2673 109.217 88.1288 110.218 88.1692C111.084 88.2039 111.832 87.6112 112.043 86.7885C112.306 85.7667 112.457 84.676 112.446 83.5474C112.432 82.4212 112.247 81.2562 111.866 80.145C111.491 79.0307 110.931 77.974 110.233 77.0305C109.883 76.5573 109.502 76.1098 109.082 75.69C108.874 75.4788 108.653 75.2763 108.42 75.0764C108.303 74.9763 108.182 74.8779 108.052 74.7783C107.989 74.7292 107.921 74.6786 107.849 74.6273L107.734 74.5473L107.667 74.5027C107.643 74.4881 107.623 74.474 107.564 74.4405L107.564 74.4401C106.911 74.0748 106.178 74.0026 105.51 74.1804L105.281 74.242L87.6529 78.9796C85.5181 79.5533 84.2428 81.7863 84.8044 83.9672C85.3661 86.1479 87.5519 87.4506 89.6865 86.8771C89.835 86.837 89.9823 86.7877 90.1219 86.7324Z" fill="#F0B5AA"/>
<path fill-rule="evenodd" clip-rule="evenodd" d="M87.3272 88.6189L104.539 81.0736L101.529 80.4716C101.562 80.486 101.65 80.5539 101.715 80.6017L101.929 80.7667C102.072 80.8796 102.215 80.9966 102.357 81.1157C102.64 81.3541 102.916 81.601 103.177 81.8513C103.699 82.3497 104.175 82.8774 104.511 83.3522C104.68 83.5867 104.808 83.8071 104.884 83.9517C104.964 84.1029 104.986 84.1369 105.05 84.0882C105.081 84.0686 105.122 84.0461 105.147 84.0544C105.172 84.0612 105.175 84.0968 105.144 84.1496C105.084 84.2578 104.877 84.4098 104.618 84.5387L104.461 84.6171C103.563 85.0637 103.193 86.1635 103.633 87.0738C104.007 87.8482 104.849 88.2353 105.644 88.0587C106.191 87.9374 106.78 87.7662 107.409 87.3745C107.721 87.1779 108.04 86.923 108.327 86.593C108.613 86.265 108.859 85.8609 109.023 85.4347C109.189 85.0081 109.275 84.5694 109.304 84.1633C109.333 83.7559 109.311 83.3786 109.265 83.0312C109.169 82.3354 108.985 81.7516 108.78 81.2184C108.364 80.1555 107.854 79.2767 107.314 78.4434C107.043 78.0285 106.763 77.6293 106.471 77.2395C106.325 77.0445 106.176 76.852 106.022 76.6601L105.787 76.3716C105.701 76.2697 105.636 76.1893 105.514 76.0583L105.513 76.0577C104.747 75.3152 103.678 75.094 102.732 75.3844L102.504 75.4556L84.5714 81.0104C82.4582 81.6653 81.268 83.9341 81.9132 86.078C82.5587 88.2222 84.7952 89.4296 86.9086 88.775C87.0514 88.7306 87.1932 88.6773 87.3272 88.6189Z" fill="#F0B5AA"/>
<path fill-rule="evenodd" clip-rule="evenodd" d="M116.673 81.5201C116.571 81.5201 116.473 81.4624 116.426 81.3634C116.406 81.3206 114.355 77.0649 111.832 75.9895C111.693 75.9301 111.627 75.7675 111.686 75.6263C111.744 75.4853 111.905 75.419 112.044 75.4782C114.758 76.6352 116.831 80.9398 116.918 81.1224C116.984 81.2601 116.927 81.4258 116.791 81.4925C116.753 81.5111 116.713 81.5201 116.673 81.5201Z" fill="#21211D"/>
<path fill-rule="evenodd" clip-rule="evenodd" d="M112.315 85.2366C112.303 85.2366 112.291 85.2358 112.279 85.2341C112.131 85.2135 112.027 85.0743 112.048 84.9231C112.054 84.8742 112.663 80.0088 109.502 78.9287C109.36 78.8804 109.284 78.7239 109.331 78.5792C109.379 78.4347 109.532 78.3566 109.673 78.4049C111.169 78.9158 112.145 80.2287 112.498 82.2017C112.758 83.656 112.59 84.944 112.583 84.998C112.564 85.1365 112.448 85.2366 112.315 85.2366Z" fill="#21211D"/>
<path fill-rule="evenodd" clip-rule="evenodd" d="M108.45 86.6058C108.411 86.6058 108.371 86.5973 108.334 86.5799C108.195 86.5154 108.135 86.3499 108.199 86.2103C108.206 86.1932 108.966 84.4954 108.279 83.0795C107.854 82.2046 106.959 81.6019 105.619 81.2878C105.471 81.253 105.378 81.1034 105.412 80.9535C105.447 80.8035 105.596 80.7104 105.744 80.745C107.256 81.0991 108.276 81.8034 108.777 82.8383C109.578 84.495 108.736 86.3658 108.7 86.4444C108.653 86.5459 108.554 86.6058 108.45 86.6058Z" fill="#21211D"/>
<path fill-rule="evenodd" clip-rule="evenodd" d="M103.139 85.6278C103.023 85.6278 102.914 85.5556 102.876 85.442C102.829 85.301 102.908 85.1494 103.054 85.1036L104.214 84.738L103.719 84.5884C103.573 84.5442 103.491 84.3936 103.537 84.2518C103.582 84.1102 103.737 84.0309 103.884 84.0753L105.21 84.4759C105.326 84.5109 105.404 84.614 105.405 84.731C105.406 84.8479 105.328 84.952 105.214 84.988L103.225 85.6145C103.197 85.6235 103.168 85.6278 103.139 85.6278Z" fill="#21211D"/>
<path fill-rule="evenodd" clip-rule="evenodd" d="M124.965 98.5373H173.861L186.97 60.9823H139.779C138.757 60.9823 137.844 61.6368 137.501 62.6169L124.965 98.5373Z" fill="#21211D"/>
<path fill-rule="evenodd" clip-rule="evenodd" d="M128.869 98.5373H176.912C177.075 98.5373 177.219 98.4336 177.272 98.2787L189.405 63.4828C189.832 62.2639 188.944 60.9823 187.672 60.9823H143.398C142.215 60.9823 141.159 61.7402 140.761 62.8755L128.508 98.017C128.42 98.2705 128.604 98.5373 128.869 98.5373Z" fill="#2E4C9E"/>
<mask id="mask2_75_1771" style="mask-type:alpha" maskUnits="userSpaceOnUse" x="128" y="61" width="62" height="38">
<path fill-rule="evenodd" clip-rule="evenodd" d="M187.578 61.1337C188.848 61.1337 189.736 62.4115 189.309 63.6268L177.184 98.318C177.129 98.4725 176.986 98.5758 176.824 98.5758H128.809C128.545 98.5758 128.36 98.3098 128.449 98.0569L140.694 63.0214C141.092 61.8895 142.147 61.1337 143.33 61.1337H187.578Z" fill="white"/>
</mask>
<g mask="url(#mask2_75_1771)">
<path fill-rule="evenodd" clip-rule="evenodd" d="M184.552 53.4265L124.291 95.5558L139.634 105.687L195.701 69.6158L184.552 53.4265Z" fill="#4965CC"/>
</g>
<path fill-rule="evenodd" clip-rule="evenodd" d="M158.925 81.3246C157.481 81.3246 156.475 80.1424 156.678 78.6839C156.881 77.2255 158.216 76.0435 159.66 76.0435C161.104 76.0435 162.11 77.2255 161.907 78.6839C161.704 80.1424 160.369 81.3246 158.925 81.3246ZM161.738 98.5373H101.884C101.884 96.5929 103.402 95.0166 105.274 95.0166H161.738V98.5373Z" fill="#2E4C9E"/>
<path fill-rule="evenodd" clip-rule="evenodd" d="M178.092 95.212H129.54C129.39 95.212 129.268 95.0808 129.268 94.9188C129.268 94.7567 129.39 94.6252 129.54 94.6252H178.092C178.242 94.6252 178.363 94.7567 178.363 94.9188C178.363 95.0808 178.242 95.212 178.092 95.212Z" fill="#21211D"/>
<path fill-rule="evenodd" clip-rule="evenodd" d="M107.327 41.181L107.698 44.3781C107.748 44.8342 107.767 45.3463 107.74 45.8198C107.476 50.3476 103.634 53.8016 99.1585 53.535C94.6828 53.2684 91.2682 49.3819 91.5319 44.8542L91.8343 39.662C91.8343 39.662 97.4151 41.5188 107.327 41.181Z" fill="#F0B5AA"/>
<path fill-rule="evenodd" clip-rule="evenodd" d="M105.253 20.6869L107.796 42.3177C108.298 46.5895 105.242 50.4599 100.97 50.962C96.6987 51.4643 92.8283 48.4084 92.326 44.1365C92.2736 43.6896 92.2637 43.2039 92.2863 42.7691L93.5669 21.0271C93.7574 17.7917 96.5348 15.3234 99.77 15.5141C102.655 15.6839 104.929 17.9128 105.253 20.6869Z" fill="#F0B5AA"/>
<path fill-rule="evenodd" clip-rule="evenodd" d="M113.693 33.2954C112.037 35.0212 109.772 35.3056 107.38 34.8262C101.274 33.6022 94.3008 27.404 94.3008 27.404C92.9179 26.3194 91.446 24.8334 90.5175 23.1939L90.47 23.1075C90.2249 22.6697 90.0211 22.2181 89.8677 21.7637C89.7954 21.5462 89.734 21.326 89.6866 21.1057C89.6809 21.0834 89.6784 21.0639 89.6725 21.0443C89.3827 19.7479 89.1708 19.8232 88.8166 17.5871C88.3176 14.4364 89.6336 11.6481 92.4553 10.126C96.2556 8.07374 101.179 7.5468 105.239 9.27824C105.25 9.28391 105.261 9.28665 105.272 9.29232C105.746 9.49575 106.201 9.73555 106.633 10.0061C110.556 12.4317 112.759 17.269 114.359 21.4013C115.812 25.1513 116.787 30.0696 113.693 33.2954Z" fill="#F0B5AA"/>
<path fill-rule="evenodd" clip-rule="evenodd" d="M97.1547 16.7513C91.96 24.166 90.1466 22.339 90.1466 22.339L90.1035 22.2392C90.0312 22.069 89.9666 21.8989 89.9099 21.7287C89.8375 21.5114 89.7749 21.2905 89.728 21.0713C89.7221 21.048 89.7202 21.0284 89.7143 21.0089C89.4246 19.714 89.2116 19.7883 88.8576 17.5526C88.8419 17.447 88.8263 17.3414 88.8145 17.2377C88.7793 16.9443 88.7598 16.6548 88.7559 16.3693L91.5314 14.8416C91.5314 14.8416 99.1879 13.849 97.1547 16.7513Z" fill="#B3A6F4"/>
<path fill-rule="evenodd" clip-rule="evenodd" d="M89.0852 28.0233C87.7068 28.0233 86.5854 29.1446 86.5854 30.5228C86.5854 31.9012 87.7068 33.0224 89.0852 33.0224C90.4634 33.0224 91.5847 31.9012 91.5847 30.5228C91.5847 29.1446 90.4634 28.0233 89.0852 28.0233ZM89.0852 33.859C87.2456 33.859 85.749 32.3622 85.749 30.5228C85.749 28.6834 87.2456 27.1869 89.0852 27.1869C90.9246 27.1869 92.4211 28.6834 92.4211 30.5228C92.4211 32.3622 90.9246 33.859 89.0852 33.859Z" fill="#D5962F"/>
<path fill-rule="evenodd" clip-rule="evenodd" d="M106.943 34.6683C106.943 34.6683 105.135 34.3667 102.74 33.1356C102.447 32.985 102.157 33.3414 102.368 33.5945L107.298 37.9059L106.943 34.6683Z" fill="#21211D"/>
<path fill-rule="evenodd" clip-rule="evenodd" d="M93.1289 28.6136C93.1289 28.6136 93.7051 28.2699 94.1202 27.6614C94.1838 27.5687 94.3271 27.5951 94.3487 27.7052C94.4963 28.4569 94.6288 30.4459 92.9292 32.0835L93.1289 28.6136Z" fill="#21211D"/>
<path fill-rule="evenodd" clip-rule="evenodd" d="M92.2201 25.6027C92.1842 25.6027 92.1478 25.5957 92.1126 25.581L88.7093 24.1553C88.5671 24.0958 88.5002 23.9325 88.5599 23.7903C88.6192 23.6485 88.7827 23.5814 88.9247 23.6411L92.3281 25.0668C92.4701 25.1262 92.537 25.2896 92.4774 25.4316C92.4328 25.5384 92.3293 25.6027 92.2201 25.6027Z" fill="#21211D"/>
<path fill-rule="evenodd" clip-rule="evenodd" d="M90.1051 26.2007C90.072 26.2007 90.0382 26.1948 90.0055 26.1823C89.8617 26.1273 89.7898 25.9661 89.8445 25.8222L90.3333 24.543C90.3883 24.399 90.5498 24.327 90.6934 24.382C90.8372 24.4369 90.9092 24.5981 90.8544 24.7419L90.3656 26.0213C90.323 26.1324 90.2171 26.2007 90.1051 26.2007Z" fill="#21211D"/>
<path fill-rule="evenodd" clip-rule="evenodd" d="M89.0852 33.8587C87.2456 33.8587 85.749 32.3622 85.749 30.5226C85.749 28.6832 87.2456 27.1866 89.0852 27.1866C89.4026 27.1866 89.7169 27.2312 90.0193 27.3193C90.2411 27.384 90.3687 27.616 90.3039 27.8378C90.2396 28.0596 90.0072 28.1869 89.7856 28.1224C89.5593 28.0565 89.3236 28.023 89.0852 28.023C87.7068 28.023 86.5854 29.1444 86.5854 30.5226C86.5854 31.901 87.7068 33.0223 89.0852 33.0223C90.4634 33.0223 91.5847 31.901 91.5847 30.5226C91.5847 30.2918 91.7719 30.1044 92.0029 30.1044C92.2339 30.1044 92.4211 30.2918 92.4211 30.5226C92.4211 32.3622 90.9246 33.8587 89.0852 33.8587Z" fill="#D5962F"/>
<path fill-rule="evenodd" clip-rule="evenodd" d="M94.9958 25.3152C94.8571 27.7048 92.8076 29.5298 90.418 29.3913C88.0281 29.2526 86.2032 27.2031 86.3419 24.8135C86.4804 22.4236 88.5299 20.5987 90.9197 20.7374C93.3093 20.8759 95.1343 22.9256 94.9958 25.3152Z" fill="#F0B5AA"/>
<path fill-rule="evenodd" clip-rule="evenodd" d="M91.4023 20.7299C91.9576 20.9036 93.6791 21.6356 94.2039 23.1168L94.9272 24.4921C95.266 25.1699 96.0662 25.4803 96.7753 25.207C97.3591 24.9821 97.7178 24.4238 97.7178 23.8345C97.7178 23.6692 97.6893 23.5012 97.6324 23.3388L94.9992 15.9698L91.4023 20.7299Z" fill="#B3A6F4"/>
<path fill-rule="evenodd" clip-rule="evenodd" d="M74.6963 10.9553C74.6963 5.67746 78.9748 1.39893 84.2525 1.39893C89.5303 1.39893 93.8089 5.67746 93.8089 10.9553C93.8089 16.2332 89.5303 20.5117 84.2525 20.5117C78.9748 20.5117 74.6963 16.2332 74.6963 10.9553Z" fill="#B3A6F4"/>
<path fill-rule="evenodd" clip-rule="evenodd" d="M91.129 15.4198L88.7454 0.600585C88.7 0.318081 88.8921 0.0522616 89.1746 0.00688259C89.4568 -0.0384964 89.7228 0.153582 89.7682 0.436027C89.7694 0.443264 89.7705 0.452456 89.7715 0.459889L91.4646 15.3738C91.4752 15.4667 91.4085 15.5506 91.3154 15.5612C91.225 15.5715 91.1433 15.5086 91.129 15.4198Z" fill="#D5962F"/>
<path fill-rule="evenodd" clip-rule="evenodd" d="M90.9512 0.641914C90.9794 0.926315 90.7716 1.18001 90.487 1.20817L89.1128 1.3445C88.8284 1.37267 88.5747 1.16494 88.5465 0.880348C88.5183 0.595947 88.7261 0.342295 89.0107 0.31407L90.3849 0.177738C90.6695 0.149513 90.923 0.357298 90.9512 0.641914Z" fill="#D5962F"/>
<path fill-rule="evenodd" clip-rule="evenodd" d="M89.9664 14.5788L94.9082 0.405855C95.0023 0.135733 95.2976 -0.00685832 95.5677 0.0874204C95.8379 0.181504 95.9804 0.476857 95.8864 0.746979C95.8838 0.754021 95.8805 0.762628 95.8778 0.769474L90.2836 14.6977C90.2488 14.7845 90.15 14.8268 90.0632 14.7918C89.9789 14.7579 89.937 14.6637 89.9664 14.5788Z" fill="#D5962F"/>
<path fill-rule="evenodd" clip-rule="evenodd" d="M94.8942 0.400202C95.0045 0.136378 95.3079 0.0119374 95.5716 0.122236L96.8459 0.655049C97.1098 0.765367 97.2342 1.06854 97.1239 1.33241C97.0137 1.59627 96.7104 1.72067 96.4465 1.61035L95.1722 1.07754C94.9083 0.967224 94.7839 0.664046 94.8942 0.400202Z" fill="#D5962F"/>
<path fill-rule="evenodd" clip-rule="evenodd" d="M93.1704 28.579C93.1704 28.579 93.7466 28.2353 94.1617 27.6268C94.2253 27.5339 94.3687 27.5605 94.3902 27.6706C94.5378 28.4223 94.6703 30.4114 92.9707 32.0489L93.1704 28.579Z" fill="#21211D"/>
<path fill-rule="evenodd" clip-rule="evenodd" d="M111.959 15.978L109.749 16.0974L108.906 14.8045V16.1443L107.49 16.2206L105.943 13.8225L106.132 16.2949L88.8143 17.2377C88.4485 14.2157 89.7688 11.5634 92.4974 10.0905C96.2959 8.03868 101.221 7.51252 105.28 9.24357C105.292 9.24944 105.303 9.2514 105.313 9.25727C105.788 9.46069 106.242 9.70128 106.674 9.9712C108.937 11.3697 110.627 13.5722 111.959 15.978Z" fill="#B3A6F4"/>
<path fill-rule="evenodd" clip-rule="evenodd" d="M89.5446 28.4068C88.1641 28.4068 87.0449 29.5258 87.0449 30.9064C87.0449 32.2869 88.1641 33.4059 89.5446 33.4059C90.9252 33.4059 92.0442 32.2869 92.0442 30.9064C92.0442 29.5258 90.9252 28.4068 89.5446 28.4068ZM86.2085 30.9064C86.2085 29.0638 87.7023 27.5704 89.5446 27.5704C91.387 27.5704 92.8806 29.0638 92.8806 30.9064C92.8806 32.7489 91.387 34.2423 89.5446 34.2423C87.7023 34.2423 86.2085 32.7489 86.2085 30.9064Z" fill="#D5962F"/>
<path fill-rule="evenodd" clip-rule="evenodd" d="M88.8801 24.0348C88.9398 23.8926 89.1031 23.8257 89.2451 23.8853L92.6483 25.3111C92.7903 25.3705 92.8572 25.5339 92.7978 25.6759C92.7383 25.8179 92.575 25.8848 92.4328 25.8253L89.0295 24.3996C88.8875 24.3401 88.8206 24.1768 88.8801 24.0348Z" fill="#21211D"/>
<path fill-rule="evenodd" clip-rule="evenodd" d="M91.0136 24.6264C91.1574 24.6813 91.2296 24.8425 91.1746 24.9863L90.6858 26.2657C90.6309 26.4094 90.4697 26.4816 90.3257 26.4267C90.182 26.3717 90.11 26.2105 90.1649 26.0668L90.6537 24.7873C90.7087 24.6434 90.8697 24.5714 91.0136 24.6264Z" fill="#21211D"/>
<path fill-rule="evenodd" clip-rule="evenodd" d="M89.5446 28.4068C88.1641 28.4068 87.0449 29.5258 87.0449 30.9064C87.0449 32.2869 88.1641 33.4059 89.5446 33.4059C90.9252 33.4059 92.0442 32.2869 92.0442 30.9064C92.0442 30.6754 92.2316 30.4882 92.4624 30.4882C92.6934 30.4882 92.8806 30.6754 92.8806 30.9064C92.8806 32.7489 91.387 34.2423 89.5446 34.2423C87.7023 34.2423 86.2085 32.7489 86.2085 30.9064C86.2085 29.0638 87.7023 27.5704 89.5446 27.5704C89.8683 27.5704 90.1821 27.6166 90.479 27.703C90.7008 27.7676 90.8282 27.9998 90.7636 28.2214C90.6991 28.4432 90.4671 28.5707 90.2453 28.5062C90.0235 28.4416 89.7883 28.4068 89.5446 28.4068Z" fill="#D5962F"/>
<path fill-rule="evenodd" clip-rule="evenodd" d="M107.638 26.5614H107.634L106.619 26.5586C106.457 26.5581 106.325 26.426 106.326 26.2637C106.326 26.1013 106.463 25.9691 106.62 25.9705L107.636 25.9734C107.849 25.9699 108.053 25.8756 108.184 25.7033C108.316 25.5312 108.359 25.3125 108.301 25.1036L107.081 20.6584C107.038 20.5017 107.13 20.34 107.287 20.2969C107.443 20.2543 107.605 20.3462 107.648 20.5027L108.868 24.9479C108.975 25.3356 108.896 25.7412 108.652 26.0605C108.408 26.3789 108.039 26.5614 107.638 26.5614Z" fill="#21211D"/>
<mask id="mask3_75_1771" style="mask-type:alpha" maskUnits="userSpaceOnUse" x="109" y="17" width="8" height="2">
<path fill-rule="evenodd" clip-rule="evenodd" d="M109.186 17.4615H116.077V18.9407H109.186V17.4615Z" fill="white"/>
</mask>
<g mask="url(#mask3_75_1771)">
<path fill-rule="evenodd" clip-rule="evenodd" d="M115.782 18.9406C115.732 18.9406 115.681 18.9277 115.635 18.9007C112.429 17.0369 109.672 18.854 109.644 18.8726C109.51 18.9635 109.327 18.9281 109.236 18.7935C109.145 18.659 109.18 18.4763 109.315 18.3853C109.44 18.301 112.409 16.3448 115.93 18.3924C116.071 18.4739 116.118 18.6539 116.037 18.7943C115.982 18.8882 115.884 18.9406 115.782 18.9406Z" fill="#21211D"/>
</g>
<path fill-rule="evenodd" clip-rule="evenodd" d="M99.2445 18.9407C99.1432 18.9407 99.0446 18.8882 98.9901 18.7944C98.9085 18.6539 98.956 18.474 99.0965 18.3924C102.618 16.3451 105.587 18.301 105.712 18.3854C105.846 18.4763 105.882 18.659 105.791 18.7936C105.7 18.9279 105.518 18.9635 105.383 18.8728C105.27 18.7971 102.586 17.0437 99.392 18.9008C99.3455 18.9277 99.2946 18.9407 99.2445 18.9407Z" fill="#21211D"/>
<mask id="mask4_75_1771" style="mask-type:alpha" maskUnits="userSpaceOnUse" x="104" y="27" width="3" height="3">
<path fill-rule="evenodd" clip-rule="evenodd" d="M104.308 27.4229H106.331V29.6133H104.308V27.4229Z" fill="white"/>
</mask>
<g mask="url(#mask4_75_1771)">
<path fill-rule="evenodd" clip-rule="evenodd" d="M106.331 27.8491V28.6017C106.331 28.7547 106.298 28.9018 106.233 29.0311C106.075 29.3751 105.725 29.6134 105.319 29.6134C104.76 29.6134 104.308 29.1606 104.308 28.6017V27.8491C104.308 27.614 104.499 27.4229 104.734 27.4229H105.904C106.139 27.4229 106.331 27.614 106.331 27.8491Z" fill="#21211D"/>
</g>
<path fill-rule="evenodd" clip-rule="evenodd" d="M106.233 29.0312C106.075 29.3752 105.725 29.6133 105.319 29.6133C104.76 29.6133 104.308 29.1604 104.308 28.6018V28.4461C104.493 28.3726 104.693 28.3313 104.901 28.3313C105.454 28.3313 105.942 28.6077 106.233 29.0312Z" fill="#F74BAD"/>
<path fill-rule="evenodd" clip-rule="evenodd" d="M104.544 23.4261C104.463 23.4261 104.382 23.3906 104.327 23.3226L102.364 20.8891L100.302 23.3275C100.203 23.4448 100.027 23.4595 99.9096 23.3603C99.7923 23.261 99.7776 23.0855 99.8768 22.968L102.156 20.2724C102.209 20.209 102.286 20.1748 102.372 20.1738C102.455 20.1746 102.533 20.2128 102.585 20.2773L104.76 22.973C104.857 23.0926 104.838 23.2678 104.719 23.3644C104.667 23.4059 104.605 23.4261 104.544 23.4261Z" fill="#21211D"/>
<path fill-rule="evenodd" clip-rule="evenodd" d="M114.858 23.4261C114.777 23.4261 114.697 23.3906 114.642 23.3226L112.678 20.8891L110.616 23.3275C110.517 23.4448 110.342 23.4595 110.224 23.3603C110.107 23.261 110.092 23.0855 110.191 22.968L112.471 20.2724C112.524 20.209 112.599 20.1748 112.686 20.1738C112.769 20.1746 112.847 20.2128 112.9 20.2773L115.075 22.973C115.171 23.0926 115.153 23.2678 115.033 23.3644C114.981 23.4059 114.92 23.4261 114.858 23.4261Z" fill="#21211D"/>
<path opacity="0.01" d="M102.714 26.404C103.672 25.7119 104.813 25.5938 106.071 26.0341C107.367 26.4875 108.253 26.883 108.704 28.3394C108.8 28.649 108.627 28.9776 108.317 29.0735C108.008 29.1693 107.679 28.996 107.583 28.6864C107.238 27.5727 106.614 27.4672 105.683 27.1418C104.772 26.8229 104.033 26.8994 103.402 27.3554C103.139 27.5451 102.772 27.486 102.583 27.2233C102.393 26.9606 102.452 26.5939 102.714 26.404Z" fill="#E69BC8"/>
<mask id="mask5_75_1771" style="mask-type:alpha" maskUnits="userSpaceOnUse" x="191" y="86" width="54" height="13">
<path fill-rule="evenodd" clip-rule="evenodd" d="M191.665 86.0769H244.439V98.5371H191.665V86.0769Z" fill="white"/>
</mask>
<g mask="url(#mask5_75_1771)">
<path fill-rule="evenodd" clip-rule="evenodd" d="M244.439 86.0769H197.831C194.425 86.0769 191.665 88.8661 191.665 92.3069C191.665 95.7475 194.425 98.5371 197.831 98.5371H244.439V86.0769Z" fill="#CCC3F8"/>
</g>
<path fill-rule="evenodd" clip-rule="evenodd" d="M244.476 87.9749H221.262C218.851 87.9749 216.897 89.9453 216.897 92.3758C216.897 94.8063 218.851 96.7768 221.262 96.7768H244.476V87.9749Z" fill="white"/>
<path fill-rule="evenodd" clip-rule="evenodd" d="M250.931 73.6962H204.289C200.882 73.6962 198.119 76.4547 198.119 79.8575C198.119 83.2602 200.882 86.0189 204.289 86.0189H250.931V73.6962Z" fill="#7B65ED"/>
<path fill-rule="evenodd" clip-rule="evenodd" d="M250.931 75.4565H227.716C225.306 75.4565 223.352 77.427 223.352 79.8575C223.352 82.288 225.306 84.2585 227.716 84.2585H250.931V75.4565Z" fill="white"/>
<path fill-rule="evenodd" clip-rule="evenodd" d="M250.899 77.9994H223.97C223.845 77.9994 223.743 77.9117 223.743 77.8038C223.743 77.6958 223.845 77.6082 223.97 77.6082H250.899C251.025 77.6082 251.127 77.6958 251.127 77.8038C251.127 77.9117 251.025 77.9994 250.899 77.9994Z" fill="#21211D"/>
<path fill-rule="evenodd" clip-rule="evenodd" d="M250.899 80.151H223.383C223.258 80.151 223.156 80.0633 223.156 79.9554C223.156 79.8474 223.258 79.7598 223.383 79.7598H250.899C251.025 79.7598 251.126 79.8474 251.126 79.9554C251.126 80.0633 251.025 80.151 250.899 80.151Z" fill="#21211D"/>
<path fill-rule="evenodd" clip-rule="evenodd" d="M250.899 82.1069H223.97C223.845 82.1069 223.743 82.0193 223.743 81.9113C223.743 81.8033 223.845 81.7157 223.97 81.7157H250.899C251.025 81.7157 251.127 81.8033 251.127 81.9113C251.127 82.0193 251.025 82.1069 250.899 82.1069Z" fill="#21211D"/>
<path fill-rule="evenodd" clip-rule="evenodd" d="M244.64 90.3221H217.711C217.585 90.3221 217.483 90.2345 217.483 90.1265C217.483 90.0185 217.585 89.9309 217.711 89.9309H244.64C244.766 89.9309 244.867 90.0185 244.867 90.1265C244.867 90.2345 244.766 90.3221 244.64 90.3221Z" fill="#21211D"/>
<path fill-rule="evenodd" clip-rule="evenodd" d="M244.64 92.4737H217.124C216.999 92.4737 216.897 92.3861 216.897 92.2781C216.897 92.1701 216.999 92.0825 217.124 92.0825H244.64C244.766 92.0825 244.868 92.1701 244.868 92.2781C244.868 92.3861 244.766 92.4737 244.64 92.4737Z" fill="#21211D"/>
<path fill-rule="evenodd" clip-rule="evenodd" d="M244.64 94.6252H217.711C217.585 94.6252 217.483 94.5376 217.483 94.4296C217.483 94.3216 217.585 94.234 217.711 94.234H244.64C244.766 94.234 244.867 94.3216 244.867 94.4296C244.867 94.5376 244.766 94.6252 244.64 94.6252Z" fill="#21211D"/>
<path fill-rule="evenodd" clip-rule="evenodd" d="M218.992 80.7378H204.239C203.668 80.7378 203.205 80.256 203.205 79.662C203.205 79.0679 203.668 78.5862 204.239 78.5862H218.992C219.564 78.5862 220.027 79.0679 220.027 79.662C220.027 80.256 219.564 80.7378 218.992 80.7378Z" fill="#B6CCFC"/>
<path fill-rule="evenodd" clip-rule="evenodd" d="M212.922 92.8648H201.116C200.541 92.8648 200.075 92.3831 200.075 91.7891C200.075 91.195 200.541 90.7133 201.116 90.7133H212.922C213.497 90.7133 213.963 91.195 213.963 91.7891C213.963 92.3831 213.497 92.8648 212.922 92.8648Z" fill="#4965CC"/>
<path fill-rule="evenodd" clip-rule="evenodd" d="M198.119 91.6913C198.119 92.5554 197.419 93.256 196.555 93.256C195.69 93.256 194.99 92.5554 194.99 91.6913C194.99 90.8271 195.69 90.1265 196.555 90.1265C197.419 90.1265 198.119 90.8271 198.119 91.6913Z" fill="#4965CC"/>
<path fill-rule="evenodd" clip-rule="evenodd" d="M31.2045 215.825C31.0666 215.825 30.9401 215.735 30.9017 215.594L2.83855 113.98C2.79239 113.812 2.89058 113.64 3.05801 113.593C3.22525 113.546 3.39835 113.646 3.44471 113.812L31.5077 215.428C31.554 215.594 31.4557 215.768 31.2884 215.815C31.2604 215.821 31.2323 215.825 31.2045 215.825Z" fill="#21211D"/>
<path fill-rule="evenodd" clip-rule="evenodd" d="M1.81464 215.825C1.78687 215.825 1.75871 215.823 1.73074 215.815C1.5635 215.768 1.46511 215.594 1.51147 215.428L29.5745 113.812C29.6208 113.646 29.7941 113.546 29.9612 113.593C30.1286 113.64 30.2268 113.812 30.1806 113.98L2.11744 215.594C2.0791 215.735 1.95254 215.825 1.81464 215.825Z" fill="#21211D"/>
<path fill-rule="evenodd" clip-rule="evenodd" d="M318.505 215.825C318.368 215.825 318.241 215.735 318.202 215.594L290.14 113.98C290.093 113.812 290.192 113.64 290.359 113.593C290.525 113.546 290.699 113.646 290.746 113.812L318.808 215.428C318.855 215.594 318.758 215.768 318.589 215.815C318.562 215.821 318.533 215.825 318.505 215.825Z" fill="#21211D"/>
<path fill-rule="evenodd" clip-rule="evenodd" d="M289.117 215.825C289.089 215.825 289.06 215.823 289.033 215.815C288.864 215.768 288.767 215.594 288.814 215.428L316.876 113.812C316.923 113.646 317.095 113.546 317.263 113.593C317.43 113.64 317.527 113.812 317.482 113.98L289.42 215.594C289.381 215.735 289.254 215.825 289.117 215.825Z" fill="#21211D"/>
<mask id="mask6_75_1771" style="mask-type:alpha" maskUnits="userSpaceOnUse" x="0" y="87" width="346" height="114">
<path fill-rule="evenodd" clip-rule="evenodd" d="M0.5 200.17H345.24V87.0002H0.5V200.17Z" fill="white"/>
</mask>
<g mask="url(#mask6_75_1771)">
<path fill-rule="evenodd" clip-rule="evenodd" d="M-32.5 108H318.5V97.0001H-32.5V108Z" fill="#402CA5"/>
<path fill-rule="evenodd" clip-rule="evenodd" d="M119.984 99.4382H-207.109C-207.325 99.4382 -207.5 99.2621 -207.5 99.047C-207.5 98.8298 -88.6572 99.4381 -88.4413 99.4381H238.652C238.867 99.4381 120.376 98.8298 120.376 99.047C120.376 99.2621 120.2 99.4382 119.984 99.4382Z" fill="white"/>
</g>
</svg>
