<svg width="239" height="299" viewBox="0 0 239 299" fill="none" xmlns="http://www.w3.org/2000/svg">
<path fill-rule="evenodd" clip-rule="evenodd" d="M75.2654 26.8269C75.2654 41.6427 63.2549 53.6535 48.4389 53.6535C33.6231 53.6535 21.6123 41.6427 21.6123 26.8269C21.6123 12.0108 33.6231 0.000244141 48.4389 0.000244141C63.2549 0.000244141 75.2654 12.0108 75.2654 26.8269Z" fill="#EAEAEA"/>
<path fill-rule="evenodd" clip-rule="evenodd" d="M65.9752 26.827C65.9752 36.5121 58.1239 44.3634 48.4388 44.3634C38.7537 44.3634 30.9023 36.5121 30.9023 26.827C30.9023 17.1418 38.7537 9.29041 48.4388 9.29041C58.1239 9.29041 65.9752 17.1418 65.9752 26.827Z" fill="#B3A6F4"/>
<path opacity="0.275414" fill-rule="evenodd" clip-rule="evenodd" d="M59.7913 2.51378L24.5948 39.1326C23.684 37.3716 22.9626 35.4965 22.4575 33.5346L54.532 0.695312C56.3643 1.12086 58.1245 1.73414 59.7913 2.51378Z" fill="#F5F9FF"/>
<path opacity="0.275414" fill-rule="evenodd" clip-rule="evenodd" d="M71.5574 13.2101L35.7471 50.4673C32.3505 48.6399 29.3928 46.1019 27.0732 43.0522L62.3468 3.88257C66.1327 6.18242 69.3043 9.39294 71.5574 13.2101Z" fill="#F5F9FF"/>
<path fill-rule="evenodd" clip-rule="evenodd" d="M54.9551 27.1602H48.4392C48.2516 27.1602 48.0996 27.008 48.0996 26.8207V17.5469C48.0996 17.3593 48.2516 17.2072 48.4392 17.2072C48.6268 17.2072 48.7787 17.3593 48.7787 17.5469V26.4809H54.9551C55.1426 26.4809 55.2946 26.6331 55.2946 26.8207C55.2946 27.008 55.1426 27.1602 54.9551 27.1602Z" fill="#21211D"/>
<path fill-rule="evenodd" clip-rule="evenodd" d="M49.2796 13.6242C49.2796 13.1596 48.903 12.783 48.4386 12.783C47.9741 12.783 47.5977 13.1596 47.5977 13.6242C47.5977 14.0885 47.9741 14.4652 48.4386 14.4652C48.903 14.4652 49.2796 14.0885 49.2796 13.6242Z" fill="#21211D"/>
<path fill-rule="evenodd" clip-rule="evenodd" d="M49.2796 39.8769C49.2796 39.4123 48.903 39.0359 48.4386 39.0359C47.9741 39.0359 47.5977 39.4123 47.5977 39.8769C47.5977 40.3414 47.9741 40.7179 48.4386 40.7179C48.903 40.7179 49.2796 40.3414 49.2796 39.8769Z" fill="#21211D"/>
<path fill-rule="evenodd" clip-rule="evenodd" d="M61.5651 27.5914C62.0297 27.5914 62.4063 27.215 62.4063 26.7504C62.4063 26.2859 62.0297 25.9094 61.5651 25.9094C61.1006 25.9094 60.7241 26.2859 60.7241 26.7504C60.7241 27.215 61.1006 27.5914 61.5651 27.5914Z" fill="#21211D"/>
<path fill-rule="evenodd" clip-rule="evenodd" d="M35.3129 27.5914C35.7774 27.5914 36.1539 27.215 36.1539 26.7504C36.1539 26.2859 35.7774 25.9094 35.3129 25.9094C34.8483 25.9094 34.4717 26.2859 34.4717 26.7504C34.4717 27.215 34.8483 27.5914 35.3129 27.5914Z" fill="#21211D"/>
<path fill-rule="evenodd" clip-rule="evenodd" d="M58.3153 18.0634C58.6437 17.7348 58.6437 17.2024 58.3153 16.8738C57.9867 16.5456 57.4543 16.5456 57.1257 16.8738C56.7973 17.2024 56.7973 17.7348 57.1257 18.0634C57.4543 18.392 57.9867 18.392 58.3153 18.0634Z" fill="#21211D"/>
<path fill-rule="evenodd" clip-rule="evenodd" d="M39.7518 36.6269C40.0802 36.2983 40.0802 35.7659 39.7518 35.4373C39.4232 35.1091 38.8908 35.1091 38.5622 35.4373C38.2338 35.7659 38.2338 36.2983 38.5622 36.6269C38.8908 36.9555 39.4232 36.9555 39.7518 36.6269Z" fill="#21211D"/>
<path fill-rule="evenodd" clip-rule="evenodd" d="M39.7518 16.874C39.4232 16.5456 38.8908 16.5456 38.5622 16.874C38.2338 17.2026 38.2338 17.735 38.5622 18.0636C38.8908 18.392 39.4232 18.392 39.7518 18.0636C40.0802 17.735 40.0802 17.2026 39.7518 16.874Z" fill="#21211D"/>
<path fill-rule="evenodd" clip-rule="evenodd" d="M58.3153 35.4373C57.9867 35.1089 57.4543 35.1089 57.1257 35.4373C56.7973 35.7659 56.7973 36.2983 57.1257 36.6269C57.4543 36.9553 57.9867 36.9553 58.3153 36.6269C58.6437 36.2983 58.6437 35.7659 58.3153 35.4373Z" fill="#21211D"/>
<mask id="mask0_75_1637" style="mask-type:alpha" maskUnits="userSpaceOnUse" x="191" y="282" width="17" height="17">
<path fill-rule="evenodd" clip-rule="evenodd" d="M191.568 282.8H207.298V298.943H191.568V282.8Z" fill="white"/>
</mask>
<g mask="url(#mask0_75_1637)">
<path fill-rule="evenodd" clip-rule="evenodd" d="M207.298 290.871C207.298 295.329 203.776 298.943 199.433 298.943C195.089 298.943 191.568 295.329 191.568 290.871C191.568 286.414 195.089 282.8 199.433 282.8C203.776 282.8 207.298 286.414 207.298 290.871Z" fill="#EAEAEA"/>
</g>
<path fill-rule="evenodd" clip-rule="evenodd" d="M199.261 288.551C197.947 288.551 196.879 289.619 196.879 290.933C196.879 292.247 197.947 293.316 199.261 293.316C200.574 293.316 201.643 292.247 201.643 290.933C201.643 289.619 200.574 288.551 199.261 288.551ZM199.261 293.884C197.634 293.884 196.31 292.56 196.31 290.933C196.31 289.306 197.634 287.982 199.261 287.982C200.888 287.982 202.212 289.306 202.212 290.933C202.212 292.56 200.888 293.884 199.261 293.884Z" fill="#21211D"/>
<path fill-rule="evenodd" clip-rule="evenodd" d="M199.195 296.835C196.838 296.835 194.721 295.416 193.803 293.219C193.743 293.077 193.809 292.912 193.95 292.852C194.09 292.792 194.253 292.859 194.313 293.001C195.144 294.99 197.06 296.275 199.195 296.275C199.348 296.275 199.472 296.4 199.472 296.555C199.472 296.709 199.348 296.835 199.195 296.835Z" fill="#6F6F6F"/>
<path fill-rule="evenodd" clip-rule="evenodd" d="M204.882 291.144C204.726 291.144 204.602 291.015 204.602 290.857C204.602 288.812 203.501 286.949 201.729 285.994C201.592 285.92 201.539 285.746 201.611 285.606C201.684 285.466 201.853 285.412 201.99 285.486C203.948 286.54 205.162 288.598 205.162 290.857C205.162 291.015 205.036 291.144 204.882 291.144Z" fill="#6F6F6F"/>
<path fill-rule="evenodd" clip-rule="evenodd" d="M85.6691 181.995C85.6031 182.083 85.6195 182.077 85.6691 181.995V181.995ZM150.34 212.517C150.283 215.661 150.157 218.811 150.039 221.972C149.762 228.289 149.387 234.629 148.872 240.972C148.61 244.143 148.327 247.314 147.989 250.483C147.828 252.068 147.644 253.653 147.456 255.233C147.262 256.807 147.064 258.41 146.826 259.936L194.413 260.582C194.215 258.902 194.047 257.301 193.882 255.668C193.723 254.043 193.564 252.42 193.424 250.8C193.128 247.557 192.873 244.316 192.627 241.075C192.142 234.594 191.739 228.11 191.355 221.605C191.186 218.353 190.975 215.091 190.818 211.823L190.287 201.965C190.097 198.657 189.905 195.325 189.685 191.912C189.625 191.053 189.573 190.211 189.503 189.329L189.406 188.016L189.358 187.36L189.301 186.683C189.22 185.772 189.154 184.902 189.051 183.93L188.91 182.503L188.729 180.959L188.634 180.18C188.619 180.062 188.592 179.893 188.572 179.748L188.504 179.294L188.365 178.389L188.295 177.937L188.254 177.691L188.196 177.37C188.117 176.948 188.031 176.486 187.95 176.133L187.824 175.568L187.76 175.287L187.698 175.034L187.444 174.032L187.188 173.106C186.507 170.749 185.83 168.82 185.151 166.985C184.467 165.158 183.79 163.44 183.106 161.773C182.421 160.106 181.729 158.49 181.03 156.899C179.634 153.717 178.249 150.62 176.818 147.575C175.42 144.512 173.977 141.503 172.554 138.496C169.686 132.494 166.818 126.541 163.88 120.56L162.877 118.519H100.46C100.407 119.019 100.351 119.52 100.293 120.019C100.111 121.613 99.9215 123.206 99.7088 124.796C99.5065 126.387 99.2877 127.976 99.0543 129.561C98.1294 135.903 97.0619 142.206 95.7922 148.394C95.4826 149.943 95.1563 151.485 94.8135 153.015C94.4748 154.545 94.1302 156.07 93.7751 157.583C93.042 160.6 92.2842 163.581 91.4626 166.472C90.6244 169.354 89.7716 172.173 88.8343 174.758C88.762 174.96 88.6876 175.161 88.6134 175.361C87.3951 174.882 86.1275 174.353 84.8412 173.791C83.5529 173.237 82.248 172.629 80.937 171.992C79.626 171.354 78.2962 170.707 76.9727 170.017C71.6646 167.27 66.3337 164.153 61.0936 160.815C58.4713 159.148 55.8782 157.406 53.3181 155.616C52.04 154.715 50.7703 153.804 49.5231 152.873C48.8975 152.409 48.2802 151.937 47.6691 151.468L46.7668 150.759L46.3311 150.405L46.1206 150.232C46.0567 150.177 45.9802 150.116 45.9513 150.082L22.4204 192.127L27.3116 194.159L32.0313 196.142L41.4194 200.136C47.6837 202.805 53.9726 205.472 60.4741 208.078C62.1032 208.723 63.7405 209.384 65.4086 210.017L67.9318 210.964L70.496 211.91C72.2242 212.532 73.9915 213.14 75.8291 213.726C77.6666 214.321 79.5661 214.904 81.6142 215.444C83.6684 215.982 85.8447 216.486 88.4317 216.9C89.7242 217.104 91.1406 217.277 92.7695 217.372C93.6016 217.419 94.4645 217.448 95.4495 217.431C96.4323 217.412 97.5018 217.353 98.7219 217.203C99.94 217.049 101.336 216.802 102.95 216.33L103.246 216.243L103.568 216.14L104.206 215.925L104.524 215.813L104.953 215.648C105.24 215.537 105.527 215.418 105.81 215.296L106.235 215.108L106.613 214.929C106.865 214.806 107.115 214.682 107.362 214.551L107.732 214.355L108.067 214.167C108.283 214.043 108.5 213.914 108.715 213.785C110.395 212.753 111.632 211.745 112.663 210.812C113.674 209.888 114.457 209.048 115.159 208.245C116.503 206.679 117.469 205.297 118.278 204.054C119.086 202.805 119.746 201.66 120.339 200.566C121.514 198.385 122.435 196.414 123.273 194.505C124.101 192.606 124.836 190.772 125.513 188.979C126.865 185.392 128.067 181.949 129.161 178.53C130.266 175.123 131.31 171.762 132.291 168.415C132.795 166.746 133.282 165.081 133.761 163.419L135.182 158.446C135.456 157.469 135.729 156.492 136.001 155.515L137.133 157.515C138.63 160.184 140.05 162.881 141.45 165.558C142.815 168.253 144.155 170.93 145.373 173.58C145.978 174.905 146.562 176.216 147.111 177.499C147.663 178.777 148.175 180.028 148.606 181.195C148.829 181.784 149.019 182.332 149.199 182.851C149.368 183.36 149.504 183.818 149.606 184.177L149.665 184.409L149.7 184.558L149.705 184.571L149.713 184.609L149.715 184.622V184.628C149.711 184.613 149.707 184.596 149.705 184.586L149.707 184.609L149.723 184.75L149.758 185.035L149.779 185.177C149.785 185.229 149.793 185.259 149.799 185.339L149.841 185.757L149.925 186.601L150.004 187.567C150.058 188.19 150.093 188.92 150.136 189.607C150.217 191.013 150.281 192.481 150.324 193.977C150.419 196.969 150.458 200.043 150.45 203.145L150.429 207.818L150.34 212.517Z" fill="#5A3EE8"/>
<path fill-rule="evenodd" clip-rule="evenodd" d="M194.412 261.033C194.445 262.527 193.339 263.815 191.375 264.882C188.847 266.256 184.899 267.266 180.134 267.886C177.228 268.267 174.011 268.497 170.63 268.574C166.584 268.668 162.792 268.367 159.472 267.769C157.625 267.439 155.924 267.016 154.41 266.52C149.745 264.993 146.831 262.774 146.778 260.37C146.722 257.756 150.062 255.486 155.385 253.964C156.644 253.603 158.011 253.285 159.472 253.011C162.686 252.414 166.351 252.044 170.263 251.953C171.791 251.919 173.291 251.95 174.744 252.044C177.606 252.226 180.292 252.644 182.707 253.23C189.658 254.92 194.348 258.023 194.412 261.033Z" fill="#21211D"/>
<path fill-rule="evenodd" clip-rule="evenodd" d="M47.0257 156.442C47.0231 156.479 47.0202 156.518 47.0174 156.558C46.9232 157.717 46.7299 158.987 46.4397 160.344C45.5578 164.504 43.7802 169.483 41.2452 174.664C40.7418 175.69 40.2166 176.686 39.6665 177.644C39.5394 177.871 39.4095 178.094 39.2765 178.317C39.2131 178.43 39.1469 178.54 39.0805 178.651C33.3053 188.305 25.7305 193.974 22.2059 192.167C20.0825 191.079 19.8503 187.504 20.9865 182.584C21.0778 182.186 21.18 181.778 21.2907 181.363C21.719 179.734 22.2832 177.981 22.9632 176.137C23.9888 173.343 25.288 170.346 26.7949 167.264C29.5982 161.535 32.943 156.798 36.1086 153.628C36.7388 152.998 37.3608 152.43 37.9691 151.926L37.972 151.923C40.7336 149.655 43.23 148.745 44.9413 149.622C46.6332 150.49 47.2856 152.961 47.0257 156.442Z" fill="#21211D"/>
<mask id="mask1_75_1637" style="mask-type:alpha" maskUnits="userSpaceOnUse" x="99" y="282" width="17" height="17">
<path fill-rule="evenodd" clip-rule="evenodd" d="M99.7642 282.8H115.493V298.943H99.7642V282.8Z" fill="white"/>
</mask>
<g mask="url(#mask1_75_1637)">
<path fill-rule="evenodd" clip-rule="evenodd" d="M115.493 290.871C115.493 295.329 111.971 298.943 107.628 298.943C103.285 298.943 99.7642 295.329 99.7642 290.871C99.7642 286.414 103.285 282.8 107.628 282.8C111.971 282.8 115.493 286.414 115.493 290.871Z" fill="#EAEAEA"/>
</g>
<path fill-rule="evenodd" clip-rule="evenodd" d="M209.167 281.238H159.635V253.005C162.85 252.411 166.515 252.044 170.428 251.953C171.956 251.919 173.456 251.95 174.909 252.044C177.771 252.225 180.458 252.64 182.873 253.223C183.484 254.611 184.187 255.996 184.996 257.337C186.683 260.136 188.822 262.746 191.542 264.804C192.012 265.16 192.501 265.5 193.007 265.822C193.929 266.407 194.799 266.984 195.621 267.552C195.716 267.618 195.808 267.68 195.899 267.745C201.976 271.961 205.354 275.546 207.178 277.958C207.363 278.204 207.534 278.438 207.69 278.659C208.843 280.299 209.167 281.238 209.167 281.238Z" fill="#BCBCBC"/>
<mask id="mask2_75_1637" style="mask-type:alpha" maskUnits="userSpaceOnUse" x="75" y="276" width="156" height="8">
<path fill-rule="evenodd" clip-rule="evenodd" d="M75.8862 276.532H230.914V283.611H75.8862V276.532Z" fill="white"/>
</mask>
<g mask="url(#mask2_75_1637)">
<path fill-rule="evenodd" clip-rule="evenodd" d="M220.917 283.611H85.8449C83.5785 283.611 81.3601 282.811 79.5982 281.359L75.8862 278.298L77.2856 276.536L80.9973 279.596C82.3644 280.723 84.086 281.344 85.8449 281.344H220.917C222.661 281.344 224.37 280.733 225.732 279.624L229.523 276.532L230.914 278.302L227.121 281.394C225.367 282.824 223.164 283.611 220.917 283.611Z" fill="#5A3EE8"/>
</g>
<path fill-rule="evenodd" clip-rule="evenodd" d="M135.817 155.496L139.004 141.204C139.049 141.002 139.347 141.044 139.335 141.25C139.033 146.223 143.824 163.644 144.881 172.056L135.817 155.496Z" fill="#21211D"/>
<path fill-rule="evenodd" clip-rule="evenodd" d="M88.6035 175.491C88.6035 175.491 92.1412 177.276 96.3956 178.987C96.7289 179.121 96.9854 178.671 96.7019 178.449C94.2023 176.49 90.3329 172.779 90.6573 169.105L88.6035 175.491Z" fill="#21211D"/>
<mask id="mask3_75_1637" style="mask-type:alpha" maskUnits="userSpaceOnUse" x="93" y="118" width="15" height="59">
<path fill-rule="evenodd" clip-rule="evenodd" d="M93.3584 118.337H107.765V176.8H93.3584V118.337Z" fill="white"/>
</mask>
<g mask="url(#mask3_75_1637)">
<path fill-rule="evenodd" clip-rule="evenodd" d="M93.6337 176.8C93.5966 176.8 93.5589 176.792 93.5227 176.776C93.3836 176.713 93.3205 176.546 93.3819 176.403C102.937 154.086 107.175 118.939 107.216 118.586C107.235 118.431 107.372 118.32 107.523 118.339C107.674 118.358 107.782 118.499 107.763 118.655C107.721 119.008 103.474 154.237 93.8856 176.631C93.8403 176.737 93.7395 176.8 93.6337 176.8Z" fill="#21211D"/>
</g>
<path fill-rule="evenodd" clip-rule="evenodd" d="M105.957 128.847C105.805 128.847 105.68 128.726 105.676 128.573C105.673 128.418 105.795 128.289 105.951 128.286C111.394 128.16 115.379 126.446 117.475 123.329C119.058 120.975 119.026 118.619 119.025 118.596C119.022 118.441 119.145 118.312 119.3 118.309C119.451 118.305 119.583 118.427 119.587 118.582C119.59 118.723 119.639 122.066 116.903 124.932C114.532 127.417 110.851 128.735 105.964 128.847C105.962 128.847 105.959 128.847 105.957 128.847Z" fill="#21211D"/>
<path fill-rule="evenodd" clip-rule="evenodd" d="M39.3498 199.457C39.2866 199.457 39.2229 199.435 39.1708 199.39C39.0532 199.29 39.0383 199.111 39.1371 198.991C47.0441 189.437 51.2678 178.742 53.4186 171.452C55.751 163.547 56.217 157.83 56.2215 157.773C56.2337 157.617 56.3677 157.502 56.5208 157.513C56.6738 157.526 56.7882 157.662 56.776 157.818C56.7716 157.875 56.3028 163.64 53.9558 171.599C51.7899 178.944 47.535 189.722 39.5627 199.356C39.5077 199.422 39.429 199.457 39.3498 199.457Z" fill="#21211D"/>
<path fill-rule="evenodd" clip-rule="evenodd" d="M192.871 245.195C192.838 245.195 192.804 245.189 192.772 245.177C182.456 241.183 171 241.397 163.206 242.28C154.754 243.237 148.675 245.163 148.615 245.182C148.469 245.228 148.313 245.147 148.266 244.999C148.22 244.852 148.301 244.694 148.447 244.648C148.508 244.628 154.639 242.686 163.144 241.723C170.999 240.833 182.551 240.62 192.97 244.653C193.113 244.709 193.185 244.87 193.13 245.015C193.088 245.127 192.983 245.195 192.871 245.195Z" fill="#21211D"/>
<path fill-rule="evenodd" clip-rule="evenodd" d="M160.922 242.455C160.918 242.455 160.913 242.455 160.908 242.455C160.755 242.447 160.637 242.313 160.645 242.156C160.658 241.887 161.986 214.837 159.229 185.509C157.292 164.901 139.223 141.765 139.04 141.534C138.944 141.412 138.963 141.233 139.083 141.135C139.203 141.037 139.377 141.056 139.473 141.178C139.519 141.236 144.112 147.089 148.883 155.425C156.87 169.38 159.219 179.458 159.783 185.455C162.544 214.826 161.213 241.916 161.2 242.186C161.192 242.337 161.069 242.455 160.922 242.455Z" fill="#21211D"/>
<path fill-rule="evenodd" clip-rule="evenodd" d="M209.167 281.238H159.635V277.865H207.178C208.748 279.996 209.167 281.238 209.167 281.238Z" fill="#EDE8D6"/>
<path fill-rule="evenodd" clip-rule="evenodd" d="M172.492 261.214C172.492 263.193 170.935 264.797 169.014 264.797C167.094 264.797 165.537 263.193 165.537 261.214C165.537 259.235 167.094 257.631 169.014 257.631C170.935 257.631 172.492 259.235 172.492 261.214Z" fill="#EDE8D6"/>
<path fill-rule="evenodd" clip-rule="evenodd" d="M182.681 262.689C182.6 262.689 182.519 262.654 182.463 262.587C182.364 262.466 182.381 262.288 182.501 262.189L186.153 259.171C186.273 259.071 186.45 259.089 186.55 259.209C186.649 259.329 186.632 259.507 186.512 259.607L182.861 262.625C182.808 262.668 182.744 262.689 182.681 262.689Z" fill="#EDE8D6"/>
<path fill-rule="evenodd" clip-rule="evenodd" d="M185.421 265.851C185.339 265.851 185.259 265.816 185.203 265.748C185.104 265.628 185.121 265.45 185.241 265.351L188.893 262.333C189.012 262.233 189.19 262.25 189.289 262.37C189.389 262.491 189.372 262.669 189.251 262.768L185.6 265.786C185.548 265.83 185.484 265.851 185.421 265.851Z" fill="#EDE8D6"/>
<path fill-rule="evenodd" clip-rule="evenodd" d="M188.582 269.013C188.501 269.013 188.421 268.977 188.365 268.91C188.266 268.79 188.283 268.612 188.403 268.512L192.054 265.494C192.174 265.395 192.352 265.412 192.451 265.532C192.55 265.652 192.533 265.831 192.413 265.93L188.762 268.948C188.709 268.991 188.646 269.013 188.582 269.013Z" fill="#EDE8D6"/>
<path fill-rule="evenodd" clip-rule="evenodd" d="M47.0812 156.358C47.0785 156.395 47.0757 156.435 47.073 156.474C46.9784 157.635 46.7845 158.906 46.493 160.264C45.6079 164.428 43.8235 169.412 41.279 174.598C40.774 175.625 40.2469 176.622 39.6946 177.581C37.5137 177.567 33.4679 177.632 32.1887 177.757C28.9809 178.065 25.7399 178.869 22.7323 180.448C22.2298 180.711 21.7387 180.997 21.2504 181.303C21.231 181.314 21.2086 181.326 21.1892 181.34C20.2679 181.926 19.3774 182.467 18.5143 182.967C18.4173 183.027 18.3202 183.081 18.223 183.137C11.8353 186.834 7.19035 188.345 4.26564 188.948C3.96592 189.007 3.68561 189.061 3.42201 189.107C1.46851 189.438 0.5 189.319 0.5 189.319L22.291 144.023L37.9937 151.835L47.0812 156.358Z" fill="#BCBCBC"/>
<path fill-rule="evenodd" clip-rule="evenodd" d="M0.5 189.32L22.2732 144.023L25.1607 145.47L4.26185 188.947C1.74722 189.469 0.5 189.32 0.5 189.32Z" fill="#EDE8D6"/>
<path fill-rule="evenodd" clip-rule="evenodd" d="M34.2727 164.733C32.5488 163.862 31.837 161.715 32.6831 159.939C33.5289 158.163 35.6124 157.43 37.3363 158.301C39.0601 159.173 39.7718 161.319 38.926 163.096C38.08 164.872 35.9967 165.605 34.2727 164.733Z" fill="#EDE8D6"/>
<path fill-rule="evenodd" clip-rule="evenodd" d="M29.7217 178.379C29.5923 178.379 29.4747 178.29 29.4433 178.158L28.3302 173.464C28.2933 173.31 28.3884 173.155 28.5423 173.118C28.6963 173.081 28.8504 173.176 28.8871 173.331L30.0006 178.025C30.0373 178.18 29.9422 178.335 29.7881 178.371C29.766 178.377 29.7437 178.379 29.7217 178.379Z" fill="#EDE8D6"/>
<path fill-rule="evenodd" clip-rule="evenodd" d="M25.7174 179.433C25.5879 179.433 25.4703 179.344 25.4389 179.212L24.3258 174.518C24.2889 174.364 24.384 174.209 24.5379 174.172C24.6919 174.135 24.846 174.23 24.8827 174.385L25.9962 179.079C26.0329 179.233 25.9378 179.389 25.7837 179.425C25.7616 179.431 25.7393 179.433 25.7174 179.433Z" fill="#EDE8D6"/>
<path fill-rule="evenodd" clip-rule="evenodd" d="M21.7121 181.12C21.5827 181.12 21.4651 181.031 21.4339 180.899L20.3204 176.204C20.2837 176.05 20.3788 175.895 20.5326 175.858C20.6867 175.821 20.841 175.917 20.8774 176.071L21.991 180.765C22.0276 180.92 21.9326 181.075 21.7785 181.112C21.7564 181.117 21.734 181.12 21.7121 181.12Z" fill="#EDE8D6"/>
<path fill-rule="evenodd" clip-rule="evenodd" d="M107.574 288.551C106.26 288.551 105.192 289.619 105.192 290.933C105.192 292.247 106.26 293.316 107.574 293.316C108.887 293.316 109.956 292.247 109.956 290.933C109.956 289.619 108.887 288.551 107.574 288.551ZM107.574 293.884C105.947 293.884 104.623 292.56 104.623 290.933C104.623 289.306 105.947 287.982 107.574 287.982C109.201 287.982 110.525 289.306 110.525 290.933C110.525 292.56 109.201 293.884 107.574 293.884Z" fill="#21211D"/>
<path fill-rule="evenodd" clip-rule="evenodd" d="M107.507 296.835C105.15 296.835 103.034 295.416 102.115 293.219C102.056 293.077 102.122 292.912 102.262 292.852C102.403 292.792 102.565 292.859 102.625 293.001C103.457 294.99 105.373 296.275 107.507 296.275C107.66 296.275 107.784 296.4 107.784 296.555C107.784 296.709 107.66 296.835 107.507 296.835Z" fill="#6F6F6F"/>
<path fill-rule="evenodd" clip-rule="evenodd" d="M113.195 291.144C113.039 291.144 112.914 291.015 112.914 290.857C112.914 288.812 111.813 286.949 110.042 285.994C109.905 285.92 109.852 285.746 109.925 285.606C109.997 285.466 110.167 285.412 110.304 285.486C112.26 286.54 113.475 288.598 113.475 290.857C113.475 291.015 113.349 291.144 113.195 291.144Z" fill="#6F6F6F"/>
<path fill-rule="evenodd" clip-rule="evenodd" d="M173.265 278.287C173.14 278.287 173.026 278.202 172.992 278.075C171.258 271.375 159.389 270.64 159.269 270.633C159.114 270.624 158.995 270.491 159.003 270.334C159.012 270.178 159.142 270.057 159.3 270.067C159.331 270.069 162.417 270.25 165.682 271.29C170.057 272.683 172.773 274.98 173.537 277.932C173.576 278.083 173.486 278.238 173.336 278.277C173.312 278.284 173.288 278.287 173.265 278.287Z" fill="#EDE8D6"/>
<path fill-rule="evenodd" clip-rule="evenodd" d="M20.9983 158.145C20.4058 158.145 19.8251 158.071 19.259 157.922C19.1076 157.882 19.0174 157.728 19.0573 157.577C19.0969 157.426 19.2518 157.336 19.4029 157.375C26.0868 159.134 32.5831 149.103 32.648 149.002C32.7319 148.87 32.9071 148.831 33.0388 148.915C33.1705 148.999 33.2093 149.174 33.1252 149.306C33.1086 149.332 31.4291 151.944 28.9135 154.295C26.1914 156.838 23.4897 158.145 20.9983 158.145Z" fill="#EDE8D6"/>
<path fill-rule="evenodd" clip-rule="evenodd" d="M87.2728 260.582H39.9813C39.828 260.582 39.7041 260.44 39.7041 260.265C39.7041 260.091 39.828 259.949 39.9813 259.949H87.2728C87.426 259.949 87.55 260.091 87.55 260.265C87.55 260.44 87.426 260.582 87.2728 260.582Z" fill="#21211D"/>
<path fill-rule="evenodd" clip-rule="evenodd" d="M55.2345 277.444H26.281C26.1278 277.444 26.0034 277.302 26.0034 277.127C26.0034 276.953 26.1278 276.811 26.281 276.811H55.2345C55.3875 276.811 55.5119 276.953 55.5119 277.127C55.5119 277.302 55.3875 277.444 55.2345 277.444Z" fill="#21211D"/>
<path fill-rule="evenodd" clip-rule="evenodd" d="M149.712 70.4057L149.678 70.2841L149.664 70.2231L149.704 70.3477L149.783 70.6055L149.871 70.8982C149.806 70.71 149.757 70.5739 149.712 70.4057ZM174.524 118.878C176.163 118.697 177.454 117.487 178.55 116.371C178.638 116.284 178.726 116.194 178.808 116.102C181.078 113.621 182.092 110.065 181.277 106.585L181.268 106.544L179.281 98.1744L176.142 83.3976L174.707 77.5147V77.5117L174.106 75.0455L173.653 73.2197L172.476 68.4872L172.034 66.7049L171.513 64.6184L171.448 64.3577L171.417 64.23L171.292 63.781C171.193 63.4419 171.1 63.1316 170.969 62.7752C170.833 62.4129 170.689 62.0535 170.533 61.7C170.355 61.3059 170.16 60.9204 169.944 60.5437C169.775 60.2394 169.594 59.9411 169.401 59.6484C168.982 59.0049 168.515 58.3934 168.002 57.8254C165.938 55.5389 163.209 53.9305 160.21 53.2929C158.716 52.9742 157.161 52.8842 155.647 53.0494C155.273 53.0844 154.848 53.1567 154.455 53.2292C154.256 53.2669 154.047 53.3102 153.863 53.3538L153.735 53.3827L153.217 53.5045L152.405 53.6957L152.373 53.7016L146.989 54.9622L146.841 54.997L145.782 55.2434L144.956 55.4373C143.161 55.8664 141.368 56.2951 139.576 56.7414C139.548 56.7475 139.52 56.7561 139.491 56.7618H139.489C138.965 56.8893 138.444 57.0168 137.922 57.15C136.833 57.4196 135.745 57.6978 134.658 57.979H134.655H134.653C133.645 58.24 132.637 58.5036 131.631 58.773C130.587 59.0512 129.545 59.3354 128.503 59.625C126.19 60.2685 124.234 61.5871 122.787 63.3201C122.169 64.0561 121.646 64.8646 121.227 65.7313C120.006 68.2265 119.644 71.1708 120.414 74.0746C120.994 76.2684 122.147 78.1491 123.659 79.5896C126.348 82.1602 130.182 83.354 133.996 82.4875L134.024 82.4818C139.494 81.2327 144.924 79.8271 150.344 78.3725L152 77.9202L152.923 80.963L155.477 89.2399L159.159 103.927C161.087 112.972 157.868 120.722 174.524 118.878Z" fill="#F0B5AA"/>
<path fill-rule="evenodd" clip-rule="evenodd" d="M163.008 118.73H89.6582L98.0397 100.033C98.0397 100.029 99.2404 96.2335 99.2404 96.2335L99.2432 96.2246L99.764 94.5755L99.9512 93.9854L105.842 75.3468L105.983 74.8953L107.139 71.247L107.374 70.5006C107.85 66.4759 109.603 63.1429 112.185 60.6981C114.428 58.5714 117.294 57.1162 120.494 56.4651C120.585 56.442 120.678 56.4247 120.772 56.4072C120.911 56.3812 121.052 56.3551 121.191 56.3319C121.706 56.2453 122.23 56.1787 122.763 56.1353L124.994 55.4699H124.997C129.869 56.5697 134.724 56.8981 139.722 56.5159C140.303 56.4727 141.07 56.5615 141.645 56.4892C142.347 56.4051 143.167 55.5537 143.861 55.4378C145.124 55.2239 146.376 54.9665 147.627 54.6887L147.71 54.6712C149.227 54.33 151.375 53.9626 152.893 53.6066L152.924 53.6007C153.955 55.3657 154.288 57.7353 154.648 60.7211L156.038 70.3704L156.211 71.5682L156.268 71.9647L161.148 105.799L161.405 107.589L161.68 109.496L161.719 109.765L163.008 118.73Z" fill="#EAEAEA"/>
<path fill-rule="evenodd" clip-rule="evenodd" d="M112.495 70.4629L113.005 69.1508C112.878 69.5987 112.705 70.0379 112.495 70.4629ZM141.711 64.249C141.685 64.1912 141.657 64.1333 141.629 64.0755C141.201 63.1595 140.656 62.3067 140.01 61.538C138.643 59.9051 136.831 58.6392 134.716 57.9599H134.713H134.71C134.523 57.8935 134.33 57.8385 134.137 57.7896C134.089 57.775 134.038 57.7605 133.99 57.7491C131.912 57.2287 129.848 56.8008 127.769 56.3241H127.766C127.764 56.3241 127.761 56.3213 127.761 56.3213C127.321 56.2231 126.882 56.1217 126.442 56.0149L127.769 56.3241L125.107 55.9282L122.891 55.6325C122.885 55.6296 122.674 55.5518 122.668 55.5518L122.66 55.5491L121.31 54.7374L120.304 54.5032L119.549 54.3299L118.818 54.1592L111.216 52.4429L109.313 52.0207L108.837 51.9168L108.599 51.8647L108.131 51.7665L107.607 51.674C106.212 51.4571 104.763 51.4282 103.348 51.6246C100.51 52.0064 97.8304 53.2288 95.6639 55.0959C94.5839 56.0322 93.631 57.1275 92.8427 58.3414C92.7124 58.544 92.5876 58.749 92.4713 58.96C92.1709 59.4743 91.9043 60.0034 91.6746 60.5465C91.6632 60.5697 91.652 60.5899 91.6404 60.6133C91.5413 60.8444 91.4478 61.0785 91.3599 61.3127L88.7144 67.1796L86.6731 71.7113C85 75.4281 83.3131 79.1392 81.6628 82.8705L76.6866 94.0467C75.6831 96.3357 74.6707 98.6188 73.667 100.908V100.911C73.029 102.356 72.3969 103.801 71.7673 105.249C69.5019 110.48 71.8213 116.593 76.9532 118.905C81.8329 121.102 87.5124 119.035 90.0073 114.335C90.0697 114.22 90.1292 114.102 90.1888 113.986C92.0261 110.495 93.8323 106.992 95.6555 103.495L99.3729 96.275L99.3756 96.2661L100.26 94.5466L100.578 93.9339V93.9311L101.25 92.6248C103.121 89.0062 104.958 85.3703 106.807 81.7401L109.591 76.2606L109.816 76.3154L113.694 77.2287L121.293 78.9746C122.096 79.1535 122.898 79.3329 123.7 79.512C125.294 79.8674 126.893 80.223 128.49 80.5613C128.628 80.5927 128.765 80.6218 128.903 80.6507C135.133 81.9716 141.235 77.8962 142.53 71.5467C143.052 68.9889 142.712 66.4512 141.711 64.249Z" fill="#EAEAEA"/>
<path fill-rule="evenodd" clip-rule="evenodd" d="M172.493 68.4965L156.443 72.1005L151.531 73.2026L145.935 57.6078C145.935 57.6078 146.268 56.4973 147.079 54.9635L152.448 53.702L152.479 53.6961L153.29 53.5047L153.806 53.3831L153.933 53.354C154.117 53.3103 154.326 53.2671 154.523 53.2294C154.916 53.1569 155.339 53.0844 155.712 53.0494C157.222 52.8842 158.772 52.9742 160.263 53.2931C163.252 53.9311 165.974 55.5404 168.032 57.8281C168.543 58.3966 169.009 59.0084 169.427 59.6521C169.619 59.9451 169.799 60.2436 169.969 60.5482C170.183 60.925 170.378 61.3107 170.556 61.7053C170.711 62.0588 170.855 62.4184 170.991 62.7811C171.121 63.1375 171.214 63.448 171.313 63.7873L171.437 64.2365L171.468 64.3642L171.533 64.6254L172.052 66.7129L172.493 68.4965Z" fill="#EAEAEA"/>
<path fill-rule="evenodd" clip-rule="evenodd" d="M143.742 97.1781C143.691 97.5453 143.618 97.9036 143.519 98.2592C143.442 98.5309 143.351 98.7969 143.247 99.0597C142.856 100.06 142.275 100.979 141.527 101.756C141.394 101.904 141.246 102.046 141.094 102.181C140.915 102.346 140.728 102.5 140.533 102.644C139.824 103.176 139.02 103.598 138.133 103.875C138.122 103.881 138.113 103.884 138.102 103.887L138.09 103.89L135.433 104.714L106.866 113.555L83.4927 120.79C81.0816 121.533 78.3843 121.42 75.9138 120.267C72.0354 118.454 69.8452 114.041 69.8452 109.662C69.8452 107.959 70.174 106.265 70.8654 104.728C70.9221 104.598 70.9813 104.471 71.038 104.343C72.6559 100.768 74.3697 97.4239 76.0129 93.8485C77.6959 90.1372 79.4129 86.4404 81.124 82.7407L83.6967 77.1969L86.3004 71.6676C87 70.1905 87.7054 68.7136 88.4138 67.2424C89.4593 65.0659 90.5161 62.8924 91.5896 60.7303C91.6012 60.7071 91.6124 60.6869 91.6237 60.6639C94.4315 55.0303 101.146 52.6401 106.79 55.3511C109.286 56.5479 111.164 58.5423 112.266 60.8951C113.467 63.4504 113.756 66.4273 112.938 69.2686C112.776 69.8438 112.564 70.416 112.306 70.9767C112.085 71.4596 111.861 71.9391 111.634 72.419C111.014 73.7602 110.385 75.0986 109.75 76.4339C108.863 78.2982 107.968 80.1625 107.07 82.0209L104.393 87.5128L101.684 92.9928C101.531 93.2992 101.381 93.6057 101.228 93.912C101.129 94.1143 101.027 94.3166 100.928 94.5219L133.305 88.0908L133.441 88.0619L134.192 87.9116C134.229 87.9057 134.263 87.9 134.3 87.8941C137.042 87.3944 139.796 88.38 141.632 90.3655H141.635C142.453 91.2471 143.091 92.3282 143.465 93.565C143.47 93.5796 143.473 93.5941 143.479 93.6087C143.833 94.805 143.91 96.0191 143.742 97.1781Z" fill="#F0B5AA"/>
<path fill-rule="evenodd" clip-rule="evenodd" d="M162.735 117.465L155 65.5375C154.976 65.3929 155.184 65.3488 155.218 65.4909L166.801 117.465L162.735 117.465Z" fill="#21211D"/>
<path fill-rule="evenodd" clip-rule="evenodd" d="M84.4323 121.193C86.6779 120.513 88.9202 119.819 91.1609 119.12L97.8846 117.026C102.365 115.62 106.848 114.228 111.319 112.786C115.792 111.35 120.25 109.857 124.716 108.392L131.403 106.151L138.082 103.872C142.323 102.425 144.613 97.7373 143.198 93.4021C141.917 89.4794 138.039 87.1908 134.171 87.8626L127.228 89.061L120.295 90.297C115.68 91.1498 111.059 91.9756 106.451 92.8575C101.841 93.7333 97.2439 94.6592 92.6435 95.5718L85.7463 96.9554C83.4467 97.4144 81.1487 97.8796 78.854 98.3587C72.6188 99.6602 68.5964 105.882 69.8695 112.256C71.1426 118.63 77.2293 122.742 83.4642 121.44C83.7861 121.373 84.1229 121.286 84.4323 121.193Z" fill="#F0B5AA"/>
<path fill-rule="evenodd" clip-rule="evenodd" d="M127.215 98.3943C129.917 97.5864 132.611 96.7414 135.301 95.8782L139.331 94.5613L140.337 94.2258C140.663 94.1177 141.042 93.9891 141.271 93.9191C141.807 93.7494 142.311 93.6278 142.678 93.5682C143.055 93.5085 143.305 93.4967 143.572 93.5347C143.836 93.5728 144.152 93.6906 144.526 93.9294C144.896 94.1682 145.311 94.4871 145.722 94.8889L145.853 95.009L145.959 95.1127C146.029 95.1842 146.097 95.2598 146.163 95.338L146.214 95.3971L146.238 95.4274L146.278 95.482L146.434 95.7008L146.748 96.1377C148.421 98.4683 150.122 100.781 151.928 103.029C152.616 103.887 153.857 104.013 154.698 103.311C155.393 102.732 155.597 101.769 155.261 100.969C154.139 98.2984 152.913 95.6919 151.658 93.1034L151.422 92.6182L151.305 92.3754L151.275 92.3147L151.231 92.2304L151.14 92.0611C151.014 91.8377 150.879 91.6187 150.735 91.4039C150.663 91.2969 150.589 91.1906 150.512 91.0852L150.396 90.9284L150.295 90.7998C149.779 90.1176 149.179 89.4279 148.442 88.7758C147.706 88.1285 146.787 87.5063 145.71 87.0883C144.638 86.6638 143.464 86.4861 142.433 86.4817C141.388 86.475 140.495 86.605 139.655 86.7513C139.195 86.8331 138.894 86.8995 138.537 86.9707L137.495 87.1819L133.332 88.0511C130.56 88.6457 127.792 89.258 125.033 89.9076C122.716 90.4531 121.271 92.8096 121.807 95.1709C122.342 97.5324 124.654 99.0045 126.972 98.459C127.049 98.4406 127.139 98.4164 127.215 98.3943Z" fill="#F0B5AA"/>
<path fill-rule="evenodd" clip-rule="evenodd" d="M124.403 103.858L142.694 96.5919L139.924 96.1881C139.898 96.1624 139.959 96.1982 139.985 96.2104L140.099 96.2743C140.178 96.3194 140.261 96.3708 140.344 96.4235C140.51 96.5285 140.678 96.645 140.844 96.7639C141.177 97.0046 141.503 97.2656 141.814 97.5413C142.435 98.0929 143.002 98.7018 143.472 99.3577C143.71 99.6851 143.925 100.024 144.11 100.375C144.298 100.725 144.462 101.085 144.59 101.457C144.862 102.199 144.992 102.986 145.012 103.806L145.015 103.936C145.042 105.033 145.936 105.899 147.013 105.872C147.945 105.848 148.707 105.161 148.878 104.266C149.112 103.043 149.17 101.745 148.992 100.478C148.913 99.8429 148.777 99.2173 148.599 98.6084C148.425 97.9972 148.206 97.4045 147.952 96.8331C147.448 95.6856 146.809 94.626 146.084 93.6447C145.721 93.1536 145.335 92.6823 144.924 92.2272C144.717 91.9998 144.506 91.7759 144.282 91.5546C144.17 91.4438 144.056 91.334 143.934 91.222L143.747 91.0523C143.672 90.9881 143.63 90.9478 143.502 90.849L143.501 90.8485C142.748 90.299 141.831 90.1544 140.998 90.3728L140.731 90.4447L121.744 95.5322C119.445 96.1483 118.072 98.5462 118.676 100.888C119.281 103.23 121.635 104.629 123.935 104.013C124.094 103.97 124.253 103.917 124.403 103.858Z" fill="#F0B5AA"/>
<path fill-rule="evenodd" clip-rule="evenodd" d="M121.035 106.009L139.334 98.7185L136.874 98.5048L136.874 98.5046C136.838 98.4831 136.842 98.4831 136.843 98.482C136.842 98.4797 136.842 98.4776 136.848 98.4797C136.859 98.4827 136.864 98.4812 136.879 98.4873C136.905 98.4955 136.933 98.5056 136.966 98.5198C137.028 98.5453 137.097 98.5769 137.167 98.6117C137.306 98.6823 137.452 98.7607 137.594 98.8501C137.881 99.025 138.16 99.2299 138.423 99.4531C138.952 99.8997 139.412 100.426 139.78 101.024C140.153 101.62 140.429 102.295 140.605 103.033C140.776 103.772 140.849 104.574 140.816 105.41L140.813 105.484C140.771 106.586 141.611 107.514 142.69 107.558C143.623 107.595 144.429 106.956 144.657 106.07C144.94 104.969 145.102 103.793 145.091 102.577C145.076 101.364 144.876 100.108 144.466 98.9108C144.061 97.71 143.458 96.5714 142.706 95.5546C142.329 95.0447 141.918 94.5625 141.466 94.1101C141.241 93.8825 141.003 93.6644 140.752 93.4487C140.626 93.341 140.496 93.235 140.356 93.1277C140.288 93.0748 140.214 93.0202 140.137 92.965L140.013 92.8788L139.941 92.8307C139.915 92.8149 139.893 92.7995 139.83 92.7637L139.83 92.7633C139.126 92.3696 138.336 92.2918 137.617 92.4834L137.37 92.5498L118.374 97.655C116.073 98.2732 114.699 100.679 115.304 103.029C115.91 105.379 118.265 106.783 120.565 106.165C120.725 106.122 120.884 106.069 121.035 106.009Z" fill="#F0B5AA"/>
<path fill-rule="evenodd" clip-rule="evenodd" d="M118.023 107.831L136.57 99.7008L133.327 99.052L133.327 99.0518C133.362 99.0676 133.457 99.1407 133.527 99.1922L133.757 99.3701C133.912 99.4917 134.066 99.6177 134.219 99.7461C134.524 100.003 134.821 100.269 135.103 100.539C135.665 101.076 136.178 101.645 136.54 102.156C136.722 102.409 136.86 102.646 136.942 102.802C137.028 102.965 137.052 103.002 137.121 102.949C137.154 102.928 137.199 102.904 137.226 102.913C137.253 102.92 137.256 102.958 137.222 103.015C137.157 103.132 136.934 103.296 136.655 103.435L136.486 103.519C135.519 104 135.119 105.186 135.594 106.166C135.997 107.001 136.904 107.418 137.761 107.228C138.35 107.097 138.985 106.913 139.663 106.49C139.999 106.279 140.343 106.004 140.652 105.648C140.961 105.295 141.226 104.859 141.402 104.4C141.581 103.94 141.673 103.468 141.705 103.03C141.737 102.591 141.713 102.185 141.663 101.81C141.559 101.06 141.361 100.431 141.14 99.8567C140.692 98.7114 140.142 97.7644 139.561 96.8665C139.269 96.4194 138.967 95.9892 138.652 95.5691C138.494 95.359 138.334 95.1516 138.169 94.9448L137.915 94.6339C137.822 94.5241 137.752 94.4375 137.621 94.2963L137.62 94.2956C136.795 93.4955 135.643 93.2572 134.623 93.5702L134.377 93.6469L115.053 99.6327C112.776 100.338 111.494 102.783 112.189 105.093C112.885 107.404 115.295 108.705 117.572 108C117.726 107.952 117.879 107.894 118.023 107.831Z" fill="#F0B5AA"/>
<path fill-rule="evenodd" clip-rule="evenodd" d="M149.645 100.182C149.536 100.182 149.43 100.12 149.38 100.013C149.358 99.9669 147.148 95.3811 144.429 94.222C144.279 94.1579 144.209 93.983 144.272 93.8308C144.335 93.6786 144.508 93.6076 144.657 93.6713C147.582 94.918 149.816 99.5565 149.91 99.7534C149.981 99.9018 149.92 100.08 149.773 100.152C149.732 100.172 149.688 100.182 149.645 100.182Z" fill="#21211D"/>
<path fill-rule="evenodd" clip-rule="evenodd" d="M144.95 104.397C144.937 104.397 144.924 104.397 144.91 104.395C144.751 104.373 144.639 104.222 144.661 104.06C144.668 104.007 145.325 98.764 141.918 97.6001C141.766 97.5481 141.683 97.3797 141.734 97.2235C141.785 97.0677 141.95 96.9836 142.103 97.0359C143.714 97.5864 144.767 99.0012 145.146 101.127C145.426 102.694 145.246 104.082 145.238 104.14C145.218 104.29 145.093 104.397 144.95 104.397Z" fill="#21211D"/>
<path fill-rule="evenodd" clip-rule="evenodd" d="M140.784 105.662C140.743 105.662 140.7 105.653 140.66 105.634C140.511 105.565 140.446 105.386 140.514 105.236C140.522 105.218 141.341 103.388 140.6 101.862C140.143 100.92 139.178 100.27 137.734 99.932C137.574 99.8943 137.475 99.7329 137.512 99.5714C137.549 99.4099 137.709 99.3092 137.869 99.3467C139.498 99.7284 140.597 100.487 141.137 101.602C142.001 103.388 141.094 105.404 141.054 105.488C141.004 105.598 140.897 105.662 140.784 105.662Z" fill="#21211D"/>
<path fill-rule="evenodd" clip-rule="evenodd" d="M135.062 104.819C134.937 104.819 134.819 104.741 134.778 104.619C134.728 104.467 134.813 104.303 134.97 104.254L136.221 103.86L135.687 103.699C135.529 103.651 135.442 103.489 135.491 103.336C135.54 103.184 135.707 103.098 135.864 103.146L137.294 103.578C137.418 103.615 137.503 103.727 137.504 103.853C137.505 103.979 137.421 104.091 137.298 104.13L135.154 104.805C135.124 104.814 135.093 104.819 135.062 104.819Z" fill="#21211D"/>
<path fill-rule="evenodd" clip-rule="evenodd" d="M169.12 120.838H221.81L235.936 80.3691H185.084C183.982 80.3691 182.999 81.0744 182.628 82.1306L169.12 120.838Z" fill="#21211D"/>
<path fill-rule="evenodd" clip-rule="evenodd" d="M173.326 120.838H225.097C225.272 120.838 225.428 120.726 225.485 120.559L238.559 83.0637C239.019 81.7501 238.062 80.3691 236.694 80.3691H188.983C187.707 80.3691 186.57 81.1859 186.141 82.4092L172.938 120.277C172.842 120.55 173.041 120.838 173.326 120.838Z" fill="#2E4C9E"/>
<mask id="mask4_75_1637" style="mask-type:alpha" maskUnits="userSpaceOnUse" x="172" y="80" width="67" height="41">
<path fill-rule="evenodd" clip-rule="evenodd" d="M236.696 80.2999C238.066 80.2999 239.021 81.6841 238.562 83.0004L225.498 120.577C225.439 120.744 225.283 120.856 225.108 120.856H173.369C173.084 120.856 172.885 120.568 172.981 120.294L186.176 82.3447C186.604 81.1186 187.741 80.2999 189.016 80.2999H236.696Z" fill="#FF3030"/>
</mask>
<g mask="url(#mask4_75_1637)">
<path fill-rule="evenodd" clip-rule="evenodd" d="M230.009 73.6959L165.071 119.329L181.604 130.303L248.662 87.9569L230.009 73.6959Z" fill="#5238D3"/>
</g>
<path fill-rule="evenodd" clip-rule="evenodd" d="M203.505 99.4444C203.286 101.016 204.37 102.29 205.926 102.29C207.482 102.29 208.921 101.016 209.139 99.4444C209.358 97.8727 208.274 96.5988 206.718 96.5988C205.162 96.5988 203.723 97.8727 203.505 99.4444Z" fill="white"/>
<path fill-rule="evenodd" clip-rule="evenodd" d="M144.249 121.049H208.746V117.255H147.901C145.884 117.255 144.249 118.953 144.249 121.049Z" fill="#5238D3"/>
<path fill-rule="evenodd" clip-rule="evenodd" d="M226.58 117.255H170.889C170.727 117.255 170.596 117.113 170.596 116.939C170.596 116.764 170.727 116.622 170.889 116.622H226.58C226.742 116.622 226.873 116.764 226.873 116.939C226.873 117.113 226.742 117.255 226.58 117.255Z" fill="white"/>
<path fill-rule="evenodd" clip-rule="evenodd" d="M120.853 57.6075L120.271 59.2284L115.256 73.2027L111.547 72.3706L107.143 71.3816L88.6448 67.2321L88.3936 67.1771C89.4358 64.9933 90.4895 62.8128 91.5602 60.6437C91.5716 60.6203 91.5828 60.6001 91.5942 60.5769C91.8231 60.0316 92.0886 59.5011 92.3882 58.9849C92.5039 58.7733 92.628 58.5672 92.7581 58.3642C93.5434 57.1463 94.4927 56.0474 95.5692 55.1079C97.7273 53.2346 100.397 52.0081 103.225 51.6251C104.634 51.428 106.078 51.4569 107.468 51.6746L107.991 51.7674L108.457 51.866L108.694 51.9181L109.169 52.0226L111.064 52.4461L118.638 54.1683L119.367 54.3394C119.867 55.2123 120.226 55.9894 120.466 56.5665C120.539 56.7433 120.601 56.8999 120.652 57.0334C120.791 57.3986 120.853 57.6075 120.853 57.6075Z" fill="#EAEAEA"/>
<path fill-rule="evenodd" clip-rule="evenodd" d="M109.76 76.5752C109.721 76.5752 109.68 76.5667 109.642 76.549C109.496 76.4818 109.431 76.3054 109.496 76.1553L114.187 65.3693C114.252 65.2194 114.423 65.1522 114.569 65.2194C114.715 65.2865 114.78 65.4629 114.715 65.613L110.024 76.3987C109.976 76.5096 109.871 76.5752 109.76 76.5752Z" fill="#21211D"/>
<path fill-rule="evenodd" clip-rule="evenodd" d="M82.784 99.3389C82.655 99.3389 82.5368 99.2503 82.5018 99.1161C82.4599 98.9553 82.5524 98.79 82.7081 98.7468L101.093 93.6583C101.249 93.6153 101.41 93.7103 101.451 93.871C101.493 94.0316 101.401 94.1968 101.245 94.2398L82.8601 99.3285C82.8346 99.3355 82.8091 99.3389 82.784 99.3389Z" fill="#21211D"/>
<path fill-rule="evenodd" clip-rule="evenodd" d="M112.97 69.4088C112.949 69.4088 112.928 69.4067 112.907 69.4018L89.8907 64.3106C89.7314 64.2754 89.6304 64.1156 89.665 63.9539C89.6998 63.7921 89.8568 63.6896 90.0163 63.7248L113.033 68.8161C113.192 68.8513 113.293 69.0111 113.258 69.1727C113.228 69.3129 113.106 69.4088 112.97 69.4088Z" fill="#21211D"/>
<path fill-rule="evenodd" clip-rule="evenodd" d="M156.345 69.198C156.21 69.198 156.089 69.103 156.059 68.9637C156.024 68.8028 156.124 68.6437 156.282 68.6083L171.505 65.2003C171.662 65.1653 171.819 65.2665 171.853 65.4277C171.888 65.5885 171.788 65.7477 171.63 65.7831L156.408 69.1909C156.387 69.1957 156.366 69.198 156.345 69.198Z" fill="#21211D"/>
<path fill-rule="evenodd" clip-rule="evenodd" d="M121.314 56.3418C121.291 55.7114 121.28 55.1452 121.274 54.6545L122.962 55.0466C122.962 55.0466 122.968 55.0495 122.976 55.0525C122.982 55.0525 122.987 55.0552 122.993 55.0582L125.117 55.4763H125.119C130.085 56.1966 135.156 56.3098 140.154 55.9264C140.734 55.8829 141.312 55.8218 141.887 55.7493C142.589 55.665 143.285 55.5604 143.979 55.4445C144.242 62.4193 144.541 71.1192 133.816 70.8983C123.09 70.6776 121.521 62.7734 121.314 56.3418Z" fill="#F0B5AA"/>
<path fill-rule="evenodd" clip-rule="evenodd" d="M146.306 48.7502C144.501 50.6313 142.033 50.9414 139.425 50.4187C132.77 49.0845 125.169 42.3285 125.169 42.3285C123.233 40.8088 121.136 38.5721 120.337 36.1802C120.258 35.9431 120.191 35.703 120.139 35.4629C119.814 33.9799 119.583 34.1045 119.191 31.6275C118.273 25.8592 122.23 21.1637 134.514 21.6652C136.575 21.7501 138.347 22.9294 139.83 24.1694C140.763 24.9474 141.571 25.8682 142.215 26.8924C142.255 26.9502 142.292 27.0111 142.328 27.0688C145.075 31.0896 152.105 42.6992 146.306 48.7502Z" fill="#F0B5AA"/>
<path fill-rule="evenodd" clip-rule="evenodd" d="M136.921 35.2016L139.661 58.5106C140.202 63.1139 136.909 67.2845 132.306 67.8256C127.702 68.3668 123.532 65.0739 122.991 60.4706C122.934 59.989 122.923 59.4656 122.948 58.9971L124.328 35.5682C124.533 32.0817 127.526 29.422 131.012 29.6275C134.121 29.8104 136.572 32.2122 136.921 35.2016Z" fill="#F0B5AA"/>
<path fill-rule="evenodd" clip-rule="evenodd" d="M127.552 33.7674L129.05 37.9765C129.111 38.1498 129.141 38.3292 129.141 38.5054C129.141 39.1345 128.758 39.7302 128.135 39.9703C127.378 40.262 126.524 39.9308 126.163 39.2075L125.391 37.7396C125.102 37.1895 124.61 36.7762 124.017 36.5907L120.337 36.1805C120.258 35.9434 120.191 35.7033 120.139 35.4633C119.814 33.98 119.583 34.1046 119.191 31.6278C118.273 25.8595 122.23 21.1639 134.514 21.6653C136.542 22.0453 138.347 22.9297 139.83 24.1697C140.763 24.9477 141.571 25.8686 142.216 26.8927C136.511 29.5582 132.013 30.5246 129.336 30.8741C127.953 31.0534 127.084 32.4544 127.552 33.7674Z" fill="#907EF0"/>
<path fill-rule="evenodd" clip-rule="evenodd" d="M125.925 40.0518C125.774 42.6565 123.54 44.6458 120.935 44.4947C118.33 44.3438 116.341 42.1098 116.492 39.5048C116.643 36.9001 118.877 34.9108 121.482 35.0619C124.087 35.2128 126.076 37.4468 125.925 40.0518Z" fill="#F0B5AA"/>
<mask id="mask5_75_1637" style="mask-type:alpha" maskUnits="userSpaceOnUse" x="132" y="14" width="14" height="14">
<path fill-rule="evenodd" clip-rule="evenodd" d="M132.615 14.6677H145.606V27.6592H132.615V14.6677Z" fill="#907EF0"/>
</mask>
<g mask="url(#mask5_75_1637)">
<path fill-rule="evenodd" clip-rule="evenodd" d="M145.478 22.4408C144.773 25.9576 141.35 28.2367 137.833 27.5313C134.316 26.826 132.037 23.4032 132.743 19.8865C133.448 16.3697 136.871 14.0904 140.388 14.7958C143.905 15.5013 146.184 18.9241 145.478 22.4408Z" fill="#907EF0"/>
</g>
<path fill-rule="evenodd" clip-rule="evenodd" d="M138.66 50.2488C138.66 50.2488 136.689 49.92 134.079 48.5782C133.759 48.414 133.444 48.8025 133.673 49.0781L139.151 54.1781L138.66 50.2488Z" fill="#21211D"/>
<path fill-rule="evenodd" clip-rule="evenodd" d="M123.89 43.6472C123.89 43.6472 124.518 43.2725 124.971 42.6094C125.04 42.5082 125.196 42.5371 125.22 42.6572C125.381 43.4765 125.489 45.5145 123.637 47.2993L123.89 43.6472Z" fill="#21211D"/>
<path d="M118.909 38.3898C118.97 38.244 119.132 38.1708 119.28 38.2168L119.307 38.2269L123.017 39.7809C123.172 39.8456 123.245 40.0237 123.18 40.1787C123.119 40.3243 122.957 40.3975 122.81 40.3515L122.782 40.3416L119.072 38.7876C118.918 38.7226 118.845 38.5445 118.909 38.3898Z" fill="#21211D"/>
<path d="M120.842 39.2099C120.902 39.0531 121.078 38.9745 121.235 39.0343C121.382 39.0908 121.461 39.2498 121.42 39.399L121.41 39.4268L120.877 40.8213C120.818 40.9781 120.642 41.0567 120.485 40.9969C120.338 40.9404 120.259 40.7815 120.301 40.6322L120.31 40.6044L120.842 39.2099Z" fill="#21211D"/>
<path opacity="0.01" d="M134.604 41.0001C135.637 40.2544 136.865 40.1271 138.221 40.6016C139.618 41.0901 140.573 41.5163 141.059 43.0858C141.162 43.4194 140.975 43.7735 140.642 43.8768C140.308 43.9801 139.954 43.7933 139.851 43.4597C139.479 42.2595 138.806 42.1459 137.803 41.7952C136.821 41.4516 136.025 41.534 135.345 42.0254C135.062 42.2298 134.667 42.1662 134.462 41.8831C134.258 41.6 134.321 41.2048 134.604 41.0001Z" fill="#ED6629"/>
</svg>
